{
  "accessors": [
    {
      "bufferView": 2,
      "componentType": 5126,
      "count": 1133,
      "max": [
        2.993771553039551,
        -9.692561149597168,
        3.38582706451416
      ],
      "min": [
        -2.993771553039551,
        -9.902721405029297,
        -2.896413207054138e-07
      ],
      "type": "VEC3"
    },
    {
      "bufferView": 2,
      "byteOffset": 13596,
      "componentType": 5126,
      "count": 1133,
      "max": [
        1.0,
        0.008699195459485054,
        1.0
      ],
      "min": [
        -1.0,
        -1.0,
        -1.0
      ],
      "type": "VEC3"
    },
    {
      "bufferView": 3,
      "componentType": 5126,
      "count": 1133,
      "max": [
        1.0,
        1.0,
        1.0,
        1.0
      ],
      "min": [
        -1.0,
        -1.0,
        -1.0,
        1.0
      ],
      "type": "VEC4"
    },
    {
      "bufferView": 1,
      "componentType": 5126,
      "count": 1133,
      "max": [
        0.999500036239624,
        0.9818512797355652
      ],
      "min": [
        0.058696236461400986,
        0.0005000000237487257
      ],
      "type": "VEC2"
    },
    {
      "bufferView": 0,
      "componentType": 5125,
      "count": 2676,
      "type": "SCALAR"
    },
    {
      "bufferView": 2,
      "byteOffset": 27192,
      "componentType": 5126,
      "count": 365,
      "max": [
        2.993771553039551,
        -3.8837459087371826,
        3.385826826095581
      ],
      "min": [
        2.8916640281677246,
        -9.78925895690918,
        -7.152557373046875e-07
      ],
      "type": "VEC3"
    },
    {
      "bufferView": 2,
      "byteOffset": 31572,
      "componentType": 5126,
      "count": 365,
      "max": [
        1.0,
        1.0,
        1.0
      ],
      "min": [
        -0.003393804654479027,
        -1.0,
        -1.0
      ],
      "type": "VEC3"
    },
    {
      "bufferView": 3,
      "byteOffset": 18128,
      "componentType": 5126,
      "count": 365,
      "max": [
        0.9999349117279053,
        1.0,
        0.8851047158241272,
        1.0
      ],
      "min": [
        -0.9999868273735046,
        -0.032358210533857346,
        -0.5266389846801758,
        1.0
      ],
      "type": "VEC4"
    },
    {
      "bufferView": 1,
      "byteOffset": 9064,
      "componentType": 5126,
      "count": 365,
      "max": [
        0.9985679388046265,
        0.984441339969635
      ],
      "min": [
        0.0005000000237487257,
        0.0005000000237487257
      ],
      "type": "VEC2"
    },
    {
      "bufferView": 0,
      "byteOffset": 10704,
      "componentType": 5125,
      "count": 558,
      "type": "SCALAR"
    },
    {
      "bufferView": 2,
      "byteOffset": 35952,
      "componentType": 5126,
      "count": 8,
      "max": [
        2.993771553039551,
        -3.8837459087371826,
        2.0442530512809753e-07
      ],
      "min": [
        -2.993771553039551,
        -9.78925895690918,
        -7.152557373046875e-07
      ],
      "type": "VEC3"
    },
    {
      "bufferView": 2,
      "byteOffset": 36048,
      "componentType": 5126,
      "count": 8,
      "max": [
        -8.041320143092889e-08,
        -7.340335628214234e-08,
        -1.0
      ],
      "min": [
        -8.196757050882297e-08,
        -7.342027430468079e-08,
        -1.0
      ],
      "type": "VEC3"
    },
    {
      "bufferView": 3,
      "byteOffset": 23968,
      "componentType": 5126,
      "count": 8,
      "max": [
        -3.719184690284194e-17,
        1.0,
        -7.340334917671498e-08,
        1.0
      ],
      "min": [
        -1.6316299422669545e-07,
        1.0,
        -7.342028141010815e-08,
        1.0
      ],
      "type": "VEC4"
    },
    {
      "bufferView": 1,
      "byteOffset": 11984,
      "componentType": 5126,
      "count": 8,
      "max": [
        0.42173609137535095,
        0.5633782148361206
      ],
      "min": [
        0.1274736076593399,
        0.26502832770347595
      ],
      "type": "VEC2"
    },
    {
      "bufferView": 0,
      "byteOffset": 12936,
      "componentType": 5125,
      "count": 18,
      "type": "SCALAR"
    },
    {
      "bufferView": 2,
      "byteOffset": 36144,
      "componentType": 5126,
      "count": 296,
      "max": [
        -2.8916640281677246,
        -3.8837461471557617,
        3.38582706451416
      ],
      "min": [
        -2.993771553039551,
        -9.78925895690918,
        -2.3702159523963928e-07
      ],
      "type": "VEC3"
    },
    {
      "bufferView": 2,
      "byteOffset": 39696,
      "componentType": 5126,
      "count": 296,
      "max": [
        0.003380195703357458,
        1.0,
        1.0
      ],
      "min": [
        -1.0,
        -1.0,
        -1.0
      ],
      "type": "VEC3"
    },
    {
      "bufferView": 3,
      "byteOffset": 24096,
      "componentType": 5126,
      "count": 296,
      "max": [
        1.0,
        1.0,
        0.067325159907341,
        1.0
      ],
      "min": [
        -0.9999967813491821,
        -1.0,
        -0.9915984272956848,
        1.0
      ],
      "type": "VEC4"
    },
    {
      "bufferView": 1,
      "byteOffset": 12048,
      "componentType": 5126,
      "count": 296,
      "max": [
        0.9993470907211304,
        0.994368851184845
      ],
      "min": [
        0.0005000000237487257,
        0.032243404537439346
      ],
      "type": "VEC2"
    },
    {
      "bufferView": 0,
      "byteOffset": 13008,
      "componentType": 5125,
      "count": 558,
      "type": "SCALAR"
    },
    {
      "bufferView": 2,
      "byteOffset": 43248,
      "componentType": 5126,
      "count": 104,
      "max": [
        2.993771553039551,
        -3.8837459087371826,
        3.38582706451416
      ],
      "min": [
        -2.993771553039551,
        -4.139849662780762,
        -7.152557373046875e-07
      ],
      "type": "VEC3"
    },
    {
      "bufferView": 2,
      "byteOffset": 44496,
      "componentType": 5126,
      "count": 104,
      "max": [
        1.0,
        1.0,
        1.0
      ],
      "min": [
        -1.0,
        0.0,
        -1.0
      ],
      "type": "VEC3"
    },
    {
      "bufferView": 3,
      "byteOffset": 28832,
      "componentType": 5126,
      "count": 104,
      "max": [
        -4.826506305732892e-09,
        0.9999630451202393,
        0.9152629971504211,
        1.0
      ],
      "min": [
        -1.0,
        -0.999992311000824,
        -0.9148313403129578,
        1.0
      ],
      "type": "VEC4"
    },
    {
      "bufferView": 1,
      "byteOffset": 14416,
      "componentType": 5126,
      "count": 104,
      "max": [
        0.9735215902328491,
        0.9124946594238281
      ],
      "min": [
        0.1274736076593399,
        0.09043964743614197
      ],
      "type": "VEC2"
    },
    {
      "bufferView": 0,
      "byteOffset": 15240,
      "componentType": 5125,
      "count": 174,
      "type": "SCALAR"
    },
    {
      "bufferView": 2,
      "byteOffset": 45744,
      "componentType": 5126,
      "count": 1575,
      "max": [
        4.043216705322266,
        1.0756360292434692,
        0.47297051548957825
      ],
      "min": [
        -1.2080273628234863,
        -1.343868613243103,
        0.3999297618865967
      ],
      "type": "VEC3"
    },
    {
      "bufferView": 2,
      "byteOffset": 64644,
      "componentType": 5126,
      "count": 1575,
      "max": [
        0.998430609703064,
        1.0,
        1.0
      ],
      "min": [
        -0.9984305500984192,
        -1.0,
        -1.0
      ],
      "type": "VEC3"
    },
    {
      "bufferView": 3,
      "byteOffset": 30496,
      "componentType": 5126,
      "count": 1575,
      "max": [
        0.9988621473312378,
        0.9999226927757263,
        0.9770676493644714,
        1.0
      ],
      "min": [
        -1.0,
        -0.9997609853744507,
        -0.9882825016975403,
        1.0
      ],
      "type": "VEC4"
    },
    {
      "bufferView": 1,
      "byteOffset": 15248,
      "componentType": 5126,
      "count": 1575,
      "max": [
        0.5007663369178772,
        0.8558617234230042
      ],
      "min": [
        0.016371700912714005,
        0.06927736848592758
      ],
      "type": "VEC2"
    },
    {
      "bufferView": 0,
      "byteOffset": 15936,
      "componentType": 5125,
      "count": 8736,
      "type": "SCALAR"
    },
    {
      "bufferView": 2,
      "byteOffset": 83544,
      "componentType": 5126,
      "count": 1509,
      "max": [
        4.043216705322266,
        1.0756360292434692,
        0.47297051548957825
      ],
      "min": [
        -1.2080273628234863,
        -1.343868613243103,
        0.3999297618865967
      ],
      "type": "VEC3"
    },
    {
      "bufferView": 2,
      "byteOffset": 101652,
      "componentType": 5126,
      "count": 1509,
      "max": [
        0.998430609703064,
        1.0,
        0.9999998211860657
      ],
      "min": [
        -0.9984305500984192,
        -1.0,
        -0.9999998807907104
      ],
      "type": "VEC3"
    },
    {
      "bufferView": 3,
      "byteOffset": 55696,
      "componentType": 5126,
      "count": 1509,
      "max": [
        0.9995737075805664,
        0.9991727471351624,
        0.9999997615814209,
        1.0
      ],
      "min": [
        -0.9995777606964111,
        -0.9998295307159424,
        -1.0,
        1.0
      ],
      "type": "VEC4"
    },
    {
      "bufferView": 1,
      "byteOffset": 27848,
      "componentType": 5126,
      "count": 1509,
      "max": [
        0.0811946839094162,
        0.8663191199302673
      ],
      "min": [
        0.016371700912714005,
        0.07985850423574448
      ],
      "type": "VEC2"
    },
    {
      "bufferView": 0,
      "byteOffset": 50880,
      "componentType": 5125,
      "count": 8352,
      "type": "SCALAR"
    },
    {
      "bufferView": 2,
      "byteOffset": 119760,
      "componentType": 5126,
      "count": 2088,
      "max": [
        2.4946296215057373,
        2.4946296215057373,
        0.03937007859349251
      ],
      "min": [
        -2.4946296215057373,
        -2.4946296215057373,
        -0.03937007859349251
      ],
      "type": "VEC3"
    },
    {
      "bufferView": 2,
      "byteOffset": 144816,
      "componentType": 5126,
      "count": 2088,
      "max": [
        0.9984285235404968,
        0.998428463935852,
        0.9996264576911926
      ],
      "min": [
        -0.9984284043312073,
        -0.9984284043312073,
        -0.9996264576911926
      ],
      "type": "VEC3"
    },
    {
      "bufferView": 3,
      "byteOffset": 79840,
      "componentType": 5126,
      "count": 2088,
      "max": [
        0.9994431734085083,
        0.9994434118270874,
        0.9995295405387878,
        1.0
      ],
      "min": [
        -0.9994429349899292,
        -0.9994430541992188,
        -0.9995309114456177,
        1.0
      ],
      "type": "VEC4"
    },
    {
      "bufferView": 1,
      "byteOffset": 39920,
      "componentType": 5126,
      "count": 2088,
      "max": [
        0.45676562190055847,
        0.8213936686515808
      ],
      "min": [
        0.0005000000237487257,
        0.06927736848592758
      ],
      "type": "VEC2"
    },
    {
      "bufferView": 0,
      "byteOffset": 84288,
      "componentType": 5125,
      "count": 10752,
      "type": "SCALAR"
    },
    {
      "bufferView": 2,
      "byteOffset": 169872,
      "componentType": 5126,
      "count": 4,
      "max": [
        2.7414190769195557,
        2.7919540405273438,
        0.0
      ],
      "min": [
        -2.7414190769195557,
        -2.7919540405273438,
        0.0
      ],
      "type": "VEC3"
    },
    {
      "bufferView": 2,
      "byteOffset": 169920,
      "componentType": 5126,
      "count": 4,
      "max": [
        0.0,
        0.0,
        1.0
      ],
      "min": [
        0.0,
        0.0,
        1.0
      ],
      "type": "VEC3"
    },
    {
      "bufferView": 3,
      "byteOffset": 113248,
      "componentType": 5126,
      "count": 4,
      "max": [
        1.0,
        0.0,
        0.0,
        1.0
      ],
      "min": [
        1.0,
        0.0,
        0.0,
        1.0
      ],
      "type": "VEC4"
    },
    {
      "bufferView": 1,
      "byteOffset": 56624,
      "componentType": 5126,
      "count": 4,
      "max": [
        0.7470683455467224,
        0.48783040046691895
      ],
      "min": [
        0.471360445022583,
        0.21212264895439148
      ],
      "type": "VEC2"
    },
    {
      "bufferView": 0,
      "byteOffset": 127296,
      "componentType": 5125,
      "count": 6,
      "type": "SCALAR"
    },
    {
      "bufferView": 2,
      "byteOffset": 169968,
      "componentType": 5126,
      "count": 52,
      "max": [
        -0.32030820846557617,
        0.4547905921936035,
        0.8273425102233887
      ],
      "min": [
        -0.8986519575119019,
        -0.45479002594947815,
        0.6321215629577637
      ],
      "type": "VEC3"
    },
    {
      "bufferView": 2,
      "byteOffset": 170592,
      "componentType": 5126,
      "count": 52,
      "max": [
        1.0,
        1.0,
        0.9988290071487427
      ],
      "min": [
        -1.0,
        -1.0,
        -2.1933301468379796e-06
      ],
      "type": "VEC3"
    },
    {
      "bufferView": 3,
      "byteOffset": 113312,
      "componentType": 5126,
      "count": 52,
      "max": [
        0.998827338218689,
        0.1497553288936615,
        1.0,
        1.0
      ],
      "min": [
        -6.587389460950208e-14,
        -0.04984378069639206,
        -1.0,
        1.0
      ],
      "type": "VEC4"
    },
    {
      "bufferView": 1,
      "byteOffset": 56656,
      "componentType": 5126,
      "count": 52,
      "max": [
        0.9299193024635315,
        0.9807212352752686
      ],
      "min": [
        0.8893152475357056,
        0.9210585951805115
      ],
      "type": "VEC2"
    },
    {
      "bufferView": 0,
      "byteOffset": 127320,
      "componentType": 5125,
      "count": 78,
      "type": "SCALAR"
    },
    {
      "bufferView": 2,
      "byteOffset": 171216,
      "componentType": 5126,
      "count": 287,
      "max": [
        1.4252068996429443,
        2.6751794815063477,
        0.09783600270748138
      ],
      "min": [
        -0.6457517147064209,
        0.479023277759552,
        -0.5944867730140686
      ],
      "type": "VEC3"
    },
    {
      "bufferView": 2,
      "byteOffset": 174660,
      "componentType": 5126,
      "count": 287,
      "max": [
        0.9971194863319397,
        0.9998155236244202,
        0.9993470907211304
      ],
      "min": [
        -0.9946299195289612,
        -0.9304320216178894,
        -0.017412403598427773
      ],
      "type": "VEC3"
    },
    {
      "bufferView": 3,
      "byteOffset": 114144,
      "componentType": 5126,
      "count": 287,
      "max": [
        0.8122015595436096,
        0.33830392360687256,
        0.9541349411010742,
        1.0
      ],
      "min": [
        -0.9102649688720703,
        -0.9941421747207642,
        -0.8719931244850159,
        1.0
      ],
      "type": "VEC4"
    },
    {
      "bufferView": 1,
      "byteOffset": 57072,
      "componentType": 5126,
      "count": 287,
      "max": [
        0.9805227518081665,
        0.8460739850997925
      ],
      "min": [
        0.518975555896759,
        0.12218303978443146
      ],
      "type": "VEC2"
    },
    {
      "bufferView": 0,
      "byteOffset": 127632,
      "componentType": 5125,
      "count": 1248,
      "type": "SCALAR"
    },
    {
      "bufferView": 2,
      "byteOffset": 178104,
      "componentType": 5126,
      "count": 287,
      "max": [
        1.4252068996429443,
        2.6751794815063477,
        0.09783600270748138
      ],
      "min": [
        -0.6457517147064209,
        0.479023277759552,
        -0.5944867730140686
      ],
      "type": "VEC3"
    },
    {
      "bufferView": 2,
      "byteOffset": 181548,
      "componentType": 5126,
      "count": 287,
      "max": [
        0.9971194863319397,
        0.9998155236244202,
        0.9993470907211304
      ],
      "min": [
        -0.9946299195289612,
        -0.9304314851760864,
        -0.01741163432598114
      ],
      "type": "VEC3"
    },
    {
      "bufferView": 3,
      "byteOffset": 118736,
      "componentType": 5126,
      "count": 287,
      "max": [
        0.8121985197067261,
        0.33830514550209045,
        0.9541237354278564,
        1.0
      ],
      "min": [
        -0.9102789163589478,
        -0.9941418170928955,
        -0.8719921112060547,
        1.0
      ],
      "type": "VEC4"
    },
    {
      "bufferView": 1,
      "byteOffset": 59368,
      "componentType": 5126,
      "count": 287,
      "max": [
        0.9276172518730164,
        0.7984588146209717
      ],
      "min": [
        0.5189754962921143,
        0.26502832770347595
      ],
      "type": "VEC2"
    },
    {
      "bufferView": 0,
      "byteOffset": 132624,
      "componentType": 5125,
      "count": 1248,
      "type": "SCALAR"
    },
    {
      "bufferView": 2,
      "byteOffset": 184992,
      "componentType": 5126,
      "count": 287,
      "max": [
        1.4252068996429443,
        2.6751794815063477,
        0.09783600270748138
      ],
      "min": [
        -0.6457517147064209,
        0.479023277759552,
        -0.5944867730140686
      ],
      "type": "VEC3"
    },
    {
      "bufferView": 2,
      "byteOffset": 188436,
      "componentType": 5126,
      "count": 287,
      "max": [
        0.9971194863319397,
        0.9998155236244202,
        0.9993470907211304
      ],
      "min": [
        -0.9946299195289612,
        -0.9304320216178894,
        -0.017412403598427773
      ],
      "type": "VEC3"
    },
    {
      "bufferView": 3,
      "byteOffset": 123328,
      "componentType": 5126,
      "count": 287,
      "max": [
        0.8122069835662842,
        0.33822038769721985,
        0.9540579319000244,
        1.0
      ],
      "min": [
        -0.9102652668952942,
        -0.9941412210464478,
        -0.8720415234565735,
        1.0
      ],
      "type": "VEC4"
    },
    {
      "bufferView": 1,
      "byteOffset": 61664,
      "componentType": 5126,
      "count": 287,
      "max": [
        0.9276172518730164,
        0.9529359340667725
      ],
      "min": [
        0.12218303978443146,
        0.1697981059551239
      ],
      "type": "VEC2"
    },
    {
      "bufferView": 0,
      "byteOffset": 137616,
      "componentType": 5125,
      "count": 1248,
      "type": "SCALAR"
    },
    {
      "bufferView": 2,
      "byteOffset": 191880,
      "componentType": 5126,
      "count": 287,
      "max": [
        1.4252068996429443,
        2.6751794815063477,
        0.09783600270748138
      ],
      "min": [
        -0.6457517147064209,
        0.479023277759552,
        -0.5944867730140686
      ],
      "type": "VEC3"
    },
    {
      "bufferView": 2,
      "byteOffset": 195324,
      "componentType": 5126,
      "count": 287,
      "max": [
        0.9971194863319397,
        0.9998155236244202,
        0.9993470907211304
      ],
      "min": [
        -0.9946299195289612,
        -0.9304314851760864,
        -0.01741163432598114
      ],
      "type": "VEC3"
    },
    {
      "bufferView": 3,
      "byteOffset": 127920,
      "componentType": 5126,
      "count": 287,
      "max": [
        0.8122004866600037,
        0.33813363313674927,
        0.9541310667991638,
        1.0
      ],
      "min": [
        -0.9102604985237122,
        -0.9941422939300537,
        -0.8720580339431763,
        1.0
      ],
      "type": "VEC4"
    },
    {
      "bufferView": 1,
      "byteOffset": 63960,
      "componentType": 5126,
      "count": 287,
      "max": [
        0.980522871017456,
        0.8249115943908691
      ],
      "min": [
        0.518975555896759,
        0.3073529005050659
      ],
      "type": "VEC2"
    },
    {
      "bufferView": 0,
      "byteOffset": 142608,
      "componentType": 5125,
      "count": 1248,
      "type": "SCALAR"
    },
    {
      "bufferView": 2,
      "byteOffset": 198768,
      "componentType": 5126,
      "count": 287,
      "max": [
        1.4252068996429443,
        2.6751794815063477,
        0.09783600270748138
      ],
      "min": [
        -0.6457517147064209,
        0.479023277759552,
        -0.5944867730140686
      ],
      "type": "VEC3"
    },
    {
      "bufferView": 2,
      "byteOffset": 202212,
      "componentType": 5126,
      "count": 287,
      "max": [
        0.9971194863319397,
        0.9998155236244202,
        0.9993470907211304
      ],
      "min": [
        -0.9946299195289612,
        -0.9304320216178894,
        -0.017412403598427773
      ],
      "type": "VEC3"
    },
    {
      "bufferView": 3,
      "byteOffset": 132512,
      "componentType": 5126,
      "count": 287,
      "max": [
        0.8122014403343201,
        0.3382420539855957,
        0.9541209936141968,
        1.0
      ],
      "min": [
        -0.9102475643157959,
        -0.9941426515579224,
        -0.8719913959503174,
        1.0
      ],
      "type": "VEC4"
    },
    {
      "bufferView": 1,
      "byteOffset": 66256,
      "componentType": 5126,
      "count": 287,
      "max": [
        0.9805228114128113,
        0.8619457483291626
      ],
      "min": [
        0.518975555896759,
        0.10631134361028671
      ],
      "type": "VEC2"
    },
    {
      "bufferView": 0,
      "byteOffset": 147600,
      "componentType": 5125,
      "count": 1248,
      "type": "SCALAR"
    },
    {
      "bufferView": 2,
      "byteOffset": 205656,
      "componentType": 5126,
      "count": 287,
      "max": [
        1.4252068996429443,
        2.6751794815063477,
        0.09783600270748138
      ],
      "min": [
        -0.6457517147064209,
        0.479023277759552,
        -0.5944867730140686
      ],
      "type": "VEC3"
    },
    {
      "bufferView": 2,
      "byteOffset": 209100,
      "componentType": 5126,
      "count": 287,
      "max": [
        0.9971194863319397,
        0.9998155236244202,
        0.9993470907211304
      ],
      "min": [
        -0.9946299195289612,
        -0.9304314851760864,
        -0.01741163432598114
      ],
      "type": "VEC3"
    },
    {
      "bufferView": 3,
      "byteOffset": 137104,
      "componentType": 5126,
      "count": 287,
      "max": [
        0.8121961951255798,
        0.33838745951652527,
        0.9541369676589966,
        1.0
      ],
      "min": [
        -0.9102501273155212,
        -0.9941420555114746,
        -0.8722560405731201,
        1.0
      ],
      "type": "VEC4"
    },
    {
      "bufferView": 1,
      "byteOffset": 68552,
      "componentType": 5126,
      "count": 287,
      "max": [
        0.980522871017456,
        0.8513643741607666
      ],
      "min": [
        0.518975555896759,
        0.3285151720046997
      ],
      "type": "VEC2"
    },
    {
      "bufferView": 0,
      "byteOffset": 152592,
      "componentType": 5125,
      "count": 1248,
      "type": "SCALAR"
    },
    {
      "bufferView": 2,
      "byteOffset": 212544,
      "componentType": 5126,
      "count": 287,
      "max": [
        1.4252068996429443,
        2.6751794815063477,
        0.09783600270748138
      ],
      "min": [
        -0.6457517147064209,
        0.479023277759552,
        -0.5944867730140686
      ],
      "type": "VEC3"
    },
    {
      "bufferView": 2,
      "byteOffset": 215988,
      "componentType": 5126,
      "count": 287,
      "max": [
        0.9971194863319397,
        0.9998155236244202,
        0.9993470907211304
      ],
      "min": [
        -0.9946299195289612,
        -0.9304320216178894,
        -0.017412403598427773
      ],
      "type": "VEC3"
    },
    {
      "bufferView": 3,
      "byteOffset": 141696,
      "componentType": 5126,
      "count": 287,
      "max": [
        0.8122062683105469,
        0.3380601108074188,
        0.9541490077972412,
        1.0
      ],
      "min": [
        -0.9102702736854553,
        -0.9941418170928955,
        -0.8721323013305664,
        1.0
      ],
      "type": "VEC4"
    },
    {
      "bufferView": 1,
      "byteOffset": 70848,
      "componentType": 5126,
      "count": 287,
      "max": [
        0.818254292011261,
        0.788928210735321
      ],
      "min": [
        0.4713604152202606,
        0.3708396553993225
      ],
      "type": "VEC2"
    },
    {
      "bufferView": 0,
      "byteOffset": 157584,
      "componentType": 5125,
      "count": 1248,
      "type": "SCALAR"
    },
    {
      "bufferView": 2,
      "byteOffset": 219432,
      "componentType": 5126,
      "count": 287,
      "max": [
        1.4252068996429443,
        2.6751794815063477,
        0.09783600270748138
      ],
      "min": [
        -0.6457517147064209,
        0.479023277759552,
        -0.5944867730140686
      ],
      "type": "VEC3"
    },
    {
      "bufferView": 2,
      "byteOffset": 222876,
      "componentType": 5126,
      "count": 287,
      "max": [
        0.9971194863319397,
        0.9998155236244202,
        0.9993470907211304
      ],
      "min": [
        -0.9946299195289612,
        -0.9304314851760864,
        -0.01741163432598114
      ],
      "type": "VEC3"
    },
    {
      "bufferView": 3,
      "byteOffset": 146288,
      "componentType": 5126,
      "count": 287,
      "max": [
        0.8122028708457947,
        0.33830514550209045,
        0.9541078805923462,
        1.0
      ],
      "min": [
        -0.910243034362793,
        -0.9941417574882507,
        -0.8720834851264954,
        1.0
      ],
      "type": "VEC4"
    },
    {
      "bufferView": 1,
      "byteOffset": 73144,
      "componentType": 5126,
      "count": 287,
      "max": [
        0.980522871017456,
        0.8566550612449646
      ],
      "min": [
        0.518975555896759,
        0.28619059920310974
      ],
      "type": "VEC2"
    },
    {
      "bufferView": 0,
      "byteOffset": 162576,
      "componentType": 5125,
      "count": 1248,
      "type": "SCALAR"
    },
    {
      "bufferView": 2,
      "byteOffset": 226320,
      "componentType": 5126,
      "count": 909,
      "max": [
        2.95275616645813,
        -3.8837459087371826,
        3.38582706451416
      ],
      "min": [
        -2.952755928039551,
        -9.78925895690918,
        2.0755577087402344
      ],
      "type": "VEC3"
    },
    {
      "bufferView": 2,
      "byteOffset": 237228,
      "componentType": 5126,
      "count": 909,
      "max": [
        1.0,
        1.0,
        1.0
      ],
      "min": [
        -1.0,
        -1.0,
        -8.450626410194673e-06
      ],
      "type": "VEC3"
    },
    {
      "bufferView": 3,
      "byteOffset": 150880,
      "componentType": 5126,
      "count": 909,
      "max": [
        1.0,
        1.0,
        0.593710720539093,
        1.0
      ],
      "min": [
        -1.0,
        -1.0,
        -0.2793627381324768,
        1.0
      ],
      "type": "VEC4"
    },
    {
      "bufferView": 1,
      "byteOffset": 75440,
      "componentType": 5126,
      "count": 909,
      "max": [
        0.9845232367515564,
        0.9840081930160522
      ],
      "min": [
        0.005790559574961662,
        0.0005000000237487257
      ],
      "type": "VEC2"
    },
    {
      "bufferView": 0,
      "byteOffset": 167568,
      "componentType": 5125,
      "count": 2580,
      "type": "SCALAR"
    },
    {
      "bufferView": 2,
      "byteOffset": 248136,
      "componentType": 5126,
      "count": 620,
      "max": [
        0.24813643097877502,
        0.24813643097877502,
        0.3693482577800751
      ],
      "min": [
        -0.24813643097877502,
        -0.24813643097877502,
        0.3463404178619385
      ],
      "type": "VEC3"
    },
    {
      "bufferView": 2,
      "byteOffset": 255576,
      "componentType": 5126,
      "count": 620,
      "max": [
        0.9914244413375854,
        0.9914237856864929,
        1.0
      ],
      "min": [
        -0.9918354153633118,
        -0.9914238452911377,
        -1.0
      ],
      "type": "VEC3"
    },
    {
      "bufferView": 3,
      "byteOffset": 165424,
      "componentType": 5126,
      "count": 620,
      "max": [
        0.997925341129303,
        0.9997978210449219,
        0.9119996428489685,
        1.0
      ],
      "min": [
        -0.9942530989646912,
        -0.951052188873291,
        -0.989997923374176,
        -1.0
      ],
      "type": "VEC4"
    },
    {
      "bufferView": 1,
      "byteOffset": 82712,
      "componentType": 5126,
      "count": 620,
      "max": [
        0.9880167841911316,
        0.9743844866752625
      ],
      "min": [
        0.016371700912714005,
        0.33380571007728577
      ],
      "type": "VEC2"
    },
    {
      "bufferView": 0,
      "byteOffset": 177888,
      "componentType": 5125,
      "count": 2244,
      "type": "SCALAR"
    },
    {
      "bufferView": 2,
      "byteOffset": 263016,
      "componentType": 5126,
      "count": 620,
      "max": [
        0.24813643097877502,
        0.24813643097877502,
        0.3693482577800751
      ],
      "min": [
        -0.24813643097877502,
        -0.24813643097877502,
        0.3463404178619385
      ],
      "type": "VEC3"
    },
    {
      "bufferView": 2,
      "byteOffset": 270456,
      "componentType": 5126,
      "count": 620,
      "max": [
        0.9914244413375854,
        0.9914237856864929,
        1.0
      ],
      "min": [
        -0.9918354153633118,
        -0.9914238452911377,
        -1.0
      ],
      "type": "VEC3"
    },
    {
      "bufferView": 3,
      "byteOffset": 175344,
      "componentType": 5126,
      "count": 620,
      "max": [
        0.9979486465454102,
        0.999768853187561,
        0.9123890995979309,
        1.0
      ],
      "min": [
        -0.9998289346694946,
        -0.951054573059082,
        -0.9900145530700684,
        -1.0
      ],
      "type": "VEC4"
    },
    {
      "bufferView": 1,
      "byteOffset": 87672,
      "componentType": 5126,
      "count": 620,
      "max": [
        0.8345905542373657,
        0.9955428838729858
      ],
      "min": [
        0.016371700912714005,
        0.1592170000076294
      ],
      "type": "VEC2"
    },
    {
      "bufferView": 0,
      "byteOffset": 186864,
      "componentType": 5125,
      "count": 2244,
      "type": "SCALAR"
    },
    {
      "bufferView": 2,
      "byteOffset": 277896,
      "componentType": 5126,
      "count": 620,
      "max": [
        0.24813643097877502,
        0.24813643097877502,
        0.3693482577800751
      ],
      "min": [
        -0.24813643097877502,
        -0.24813643097877502,
        0.3463404178619385
      ],
      "type": "VEC3"
    },
    {
      "bufferView": 2,
      "byteOffset": 285336,
      "componentType": 5126,
      "count": 620,
      "max": [
        0.9914244413375854,
        0.9914237856864929,
        1.0
      ],
      "min": [
        -0.9918354153633118,
        -0.9914238452911377,
        -1.0
      ],
      "type": "VEC3"
    },
    {
      "bufferView": 3,
      "byteOffset": 185264,
      "componentType": 5126,
      "count": 620,
      "max": [
        0.9978485703468323,
        0.9997988939285278,
        0.9120041131973267,
        1.0
      ],
      "min": [
        -0.9673116207122803,
        -0.9509900808334351,
        -0.9899517893791199,
        -1.0
      ],
      "type": "VEC4"
    },
    {
      "bufferView": 1,
      "byteOffset": 92632,
      "componentType": 5126,
      "count": 620,
      "max": [
        0.8610431551933289,
        0.9690938591957092
      ],
      "min": [
        0.016371700912714005,
        0.577171802520752
      ],
      "type": "VEC2"
    },
    {
      "bufferView": 0,
      "byteOffset": 195840,
      "componentType": 5125,
      "count": 2244,
      "type": "SCALAR"
    },
    {
      "bufferView": 2,
      "byteOffset": 292776,
      "componentType": 5126,
      "count": 620,
      "max": [
        0.24813643097877502,
        0.24813643097877502,
        0.3693482577800751
      ],
      "min": [
        -0.24813643097877502,
        -0.24813643097877502,
        0.3463404178619385
      ],
      "type": "VEC3"
    },
    {
      "bufferView": 2,
      "byteOffset": 300216,
      "componentType": 5126,
      "count": 620,
      "max": [
        0.9914244413375854,
        0.9914237856864929,
        1.0
      ],
      "min": [
        -0.9918354153633118,
        -0.9914238452911377,
        -1.0
      ],
      "type": "VEC3"
    },
    {
      "bufferView": 3,
      "byteOffset": 195184,
      "componentType": 5126,
      "count": 620,
      "max": [
        0.9979066252708435,
        0.9997895956039429,
        0.9116314649581909,
        1.0
      ],
      "min": [
        -0.9874849915504456,
        -0.9510511755943298,
        -0.9900365471839905,
        -1.0
      ],
      "type": "VEC4"
    },
    {
      "bufferView": 1,
      "byteOffset": 97592,
      "componentType": 5126,
      "count": 620,
      "max": [
        0.8692816495895386,
        0.9902523159980774
      ],
      "min": [
        0.016371700912714005,
        0.5031038522720337
      ],
      "type": "VEC2"
    },
    {
      "bufferView": 0,
      "byteOffset": 204816,
      "componentType": 5125,
      "count": 2244,
      "type": "SCALAR"
    },
    {
      "bufferView": 2,
      "byteOffset": 307656,
      "componentType": 5126,
      "count": 681,
      "max": [
        0.24813643097877502,
        0.24813643097877502,
        0.3693482577800751
      ],
      "min": [
        -0.24813643097877502,
        -0.24813643097877502,
        0.12285056710243225
      ],
      "type": "VEC3"
    },
    {
      "bufferView": 2,
      "byteOffset": 315828,
      "componentType": 5126,
      "count": 681,
      "max": [
        1.0,
        1.0,
        1.0
      ],
      "min": [
        -1.0,
        -1.0,
        -1.0
      ],
      "type": "VEC3"
    },
    {
      "bufferView": 3,
      "byteOffset": 205104,
      "componentType": 5126,
      "count": 681,
      "max": [
        0.9999929666519165,
        0.9999809265136719,
        0.946209192276001,
        1.0
      ],
      "min": [
        -0.9990963339805603,
        -0.9910292029380798,
        -0.9484493136405945,
        1.0
      ],
      "type": "VEC4"
    },
    {
      "bufferView": 1,
      "byteOffset": 102552,
      "componentType": 5126,
      "count": 681,
      "max": [
        0.8805214762687683,
        0.9430168867111206
      ],
      "min": [
        0.4819415807723999,
        0.5824624300003052
      ],
      "type": "VEC2"
    },
    {
      "bufferView": 0,
      "byteOffset": 213792,
      "componentType": 5125,
      "count": 2388,
      "type": "SCALAR"
    },
    {
      "bufferView": 2,
      "byteOffset": 324000,
      "componentType": 5126,
      "count": 681,
      "max": [
        0.24813643097877502,
        0.24813643097877502,
        0.3693482577800751
      ],
      "min": [
        -0.24813643097877502,
        -0.24813643097877502,
        0.13508859276771545
      ],
      "type": "VEC3"
    },
    {
      "bufferView": 2,
      "byteOffset": 332172,
      "componentType": 5126,
      "count": 681,
      "max": [
        1.0,
        1.0,
        1.0
      ],
      "min": [
        -1.0,
        -1.0,
        -1.0
      ],
      "type": "VEC3"
    },
    {
      "bufferView": 3,
      "byteOffset": 216000,
      "componentType": 5126,
      "count": 681,
      "max": [
        0.9999938011169434,
        0.9999832510948181,
        0.9461798667907715,
        1.0
      ],
      "min": [
        -0.9989944696426392,
        -0.9910083413124084,
        -0.9484513998031616,
        1.0
      ],
      "type": "VEC4"
    },
    {
      "bufferView": 1,
      "byteOffset": 108000,
      "componentType": 5126,
      "count": 681,
      "max": [
        0.98284512758255,
        0.9578096270561218
      ],
      "min": [
        0.10102077573537827,
        0.5348472595214844
      ],
      "type": "VEC2"
    },
    {
      "bufferView": 0,
      "byteOffset": 223344,
      "componentType": 5125,
      "count": 2388,
      "type": "SCALAR"
    },
    {
      "bufferView": 2,
      "byteOffset": 340344,
      "componentType": 5126,
      "count": 681,
      "max": [
        0.24813643097877502,
        0.24813643097877502,
        0.3693482577800751
      ],
      "min": [
        -0.24813643097877502,
        -0.24813643097877502,
        0.09633481502532959
      ],
      "type": "VEC3"
    },
    {
      "bufferView": 2,
      "byteOffset": 348516,
      "componentType": 5126,
      "count": 681,
      "max": [
        1.0,
        1.0,
        1.0
      ],
      "min": [
        -1.0,
        -1.0,
        -1.0
      ],
      "type": "VEC3"
    },
    {
      "bufferView": 3,
      "byteOffset": 226896,
      "componentType": 5126,
      "count": 681,
      "max": [
        0.9999911785125732,
        0.9999777674674988,
        0.9463221430778503,
        1.0
      ],
      "min": [
        -0.999293863773346,
        -0.9910649061203003,
        -0.948451578617096,
        1.0
      ],
      "type": "VEC4"
    },
    {
      "bufferView": 1,
      "byteOffset": 113448,
      "componentType": 5126,
      "count": 681,
      "max": [
        0.8741226196289063,
        0.9588807225227356
      ],
      "min": [
        0.4819415807723999,
        0.2385755032300949
      ],
      "type": "VEC2"
    },
    {
      "bufferView": 0,
      "byteOffset": 232896,
      "componentType": 5125,
      "count": 2388,
      "type": "SCALAR"
    },
    {
      "bufferView": 2,
      "byteOffset": 356688,
      "componentType": 5126,
      "count": 681,
      "max": [
        0.24813643097877502,
        0.24813643097877502,
        0.3693482577800751
      ],
      "min": [
        -0.24813643097877502,
        -0.24813643097877502,
        0.13100925087928772
      ],
      "type": "VEC3"
    },
    {
      "bufferView": 2,
      "byteOffset": 364860,
      "componentType": 5126,
      "count": 681,
      "max": [
        1.0,
        1.0,
        1.0
      ],
      "min": [
        -1.0,
        -1.0,
        -1.0
      ],
      "type": "VEC3"
    },
    {
      "bufferView": 3,
      "byteOffset": 237792,
      "componentType": 5126,
      "count": 681,
      "max": [
        0.9999935030937195,
        0.9999808669090271,
        0.9462445974349976,
        1.0
      ],
      "min": [
        -0.9982358813285828,
        -0.9910078644752502,
        -0.9484442472457886,
        1.0
      ],
      "type": "VEC4"
    },
    {
      "bufferView": 1,
      "byteOffset": 118896,
      "componentType": 5126,
      "count": 681,
      "max": [
        0.887596845626831,
        0.9643316268920898
      ],
      "min": [
        0.4819415807723999,
        0.5718812346458435
      ],
      "type": "VEC2"
    },
    {
      "bufferView": 0,
      "byteOffset": 242448,
      "componentType": 5125,
      "count": 2388,
      "type": "SCALAR"
    },
    {
      "bufferView": 2,
      "byteOffset": 373032,
      "componentType": 5126,
      "count": 231,
      "max": [
        0.8845883011817932,
        0.8845880627632141,
        0.257568359375
      ],
      "min": [
        -0.8845880627632141,
        -0.8845880627632141,
        0.0
      ],
      "type": "VEC3"
    },
    {
      "bufferView": 2,
      "byteOffset": 375804,
      "componentType": 5126,
      "count": 231,
      "max": [
        1.0,
        1.0,
        1.0
      ],
      "min": [
        -1.0,
        -1.0,
        -1.0
      ],
      "type": "VEC3"
    },
    {
      "bufferView": 3,
      "byteOffset": 248688,
      "componentType": 5126,
      "count": 231,
      "max": [
        1.0,
        1.0,
        2.3841348593123257e-06,
        1.0
      ],
      "min": [
        -1.0,
        -1.0,
        0.0,
        1.0
      ],
      "type": "VEC4"
    },
    {
      "bufferView": 1,
      "byteOffset": 124344,
      "componentType": 5126,
      "count": 231,
      "max": [
        0.7479825615882874,
        0.8928231596946716
      ],
      "min": [
        0.4713604152202606,
        0.20683209598064423
      ],
      "type": "VEC2"
    },
    {
      "bufferView": 0,
      "byteOffset": 252000,
      "componentType": 5125,
      "count": 672,
      "type": "SCALAR"
    },
    {
      "bufferView": 2,
      "byteOffset": 378576,
      "componentType": 5126,
      "count": 84,
      "max": [
        0.18459364771842957,
        0.5982998609542847,
        0.34216436743736267
      ],
      "min": [
        -0.22888049483299255,
        0.2572910785675049,
        0.0
      ],
      "type": "VEC3"
    },
    {
      "bufferView": 2,
      "byteOffset": 379584,
      "componentType": 5126,
      "count": 84,
      "max": [
        1.0,
        1.0,
        1.0
      ],
      "min": [
        -1.0,
        0.0,
        -1.0
      ],
      "type": "VEC3"
    },
    {
      "bufferView": 3,
      "byteOffset": 252384,
      "componentType": 5126,
      "count": 84,
      "max": [
        1.0,
        1.0,
        1.0,
        1.0
      ],
      "min": [
        -1.0,
        0.0,
        -1.0,
        1.0
      ],
      "type": "VEC4"
    },
    {
      "bufferView": 1,
      "byteOffset": 126192,
      "componentType": 5126,
      "count": 84,
      "max": [
        0.8543718457221985,
        0.9643122553825378
      ],
      "min": [
        0.3920019268989563,
        0.12218303978443146
      ],
      "type": "VEC2"
    },
    {
      "bufferView": 0,
      "byteOffset": 254688,
      "componentType": 5125,
      "count": 162,
      "type": "SCALAR"
    },
    {
      "bufferView": 2,
      "byteOffset": 380592,
      "componentType": 5126,
      "count": 110,
      "max": [
        0.9773920178413391,
        0.5335304737091064,
        0.6545825004577637
      ],
      "min": [
        -0.9773919582366943,
        -0.5335304737091064,
        0.6126918196678162
      ],
      "type": "VEC3"
    },
    {
      "bufferView": 2,
      "byteOffset": 381912,
      "componentType": 5126,
      "count": 110,
      "max": [
        1.0,
        1.0,
        1.0
      ],
      "min": [
        -1.0,
        -1.0,
        -1.4228646705305437e-06
      ],
      "type": "VEC3"
    },
    {
      "bufferView": 3,
      "byteOffset": 253728,
      "componentType": 5126,
      "count": 110,
      "max": [
        1.0,
        1.0,
        2.1032437302892504e-07,
        1.0
      ],
      "min": [
        -1.0,
        -1.0,
        -1.0,
        1.0
      ],
      "type": "VEC4"
    },
    {
      "bufferView": 1,
      "byteOffset": 126864,
      "componentType": 5126,
      "count": 110,
      "max": [
        0.9887996912002563,
        0.983346700668335
      ],
      "min": [
        0.0005000000237487257,
        0.2491566240787506
      ],
      "type": "VEC2"
    },
    {
      "bufferView": 0,
      "byteOffset": 255336,
      "componentType": 5125,
      "count": 222,
      "type": "SCALAR"
    }
  ],
  "asset": {
    "extras": {
      "author": "nofurion (https://sketchfab.com/nofurion)",
      "license": "CC-BY-4.0 (http://creativecommons.org/licenses/by/4.0/)",
      "source": "https://sketchfab.com/3d-models/power-supply-aerocool-kcas-500w-atx-bfb1f77fffb0410f9ee0d0be6fb5fc88",
      "title": "Power supply Aerocool KCAS 500W ATX"
    },
    "generator": "Sketchfab-16.59.0",
    "version": "2.0"
  },
  "bufferViews": [
    {
      "buffer": 0,
      "byteLength": 256224,
      "name": "floatBufferViews",
      "target": 34963
    },
    {
      "buffer": 0,
      "byteLength": 127744,
      "byteOffset": 256224,
      "byteStride": 8,
      "name": "floatBufferViews",
      "target": 34962
    },
    {
      "buffer": 0,
      "byteLength": 383232,
      "byteOffset": 383968,
      "byteStride": 12,
      "name": "floatBufferViews",
      "target": 34962
    },
    {
      "buffer": 0,
      "byteLength": 255488,
      "byteOffset": 767200,
      "byteStride": 16,
      "name": "floatBufferViews",
      "target": 34962
    }
  ],
  "buffers": [
    {
      "byteLength": 1022688,
      "uri": "scene.bin"
    }
  ],
  "images": [
    {
      "uri": "textures/front_low__0_baseColor.png"
    },
    {
      "uri": "textures/front_low__0_metallicRoughness.png"
    },
    {
      "uri": "textures/front_low__0_normal.png"
    }
  ],
  "materials": [
    {
      "doubleSided": true,
      "name": "front_low__0",
      "normalTexture": {
        "index": 2
      },
      "pbrMetallicRoughness": {
        "baseColorTexture": {
          "index": 0
        },
        "metallicRoughnessTexture": {
          "index": 1
        }
      }
    },
    {
      "doubleSided": true,
      "name": "Unwrap_Texture_Checker_Material",
      "normalTexture": {
        "index": 2
      },
      "pbrMetallicRoughness": {
        "baseColorTexture": {
          "index": 0
        },
        "metallicRoughnessTexture": {
          "index": 1
        }
      }
    }
  ],
  "meshes": [
    {
      "name": "front_low__0",
      "primitives": [
        {
          "attributes": {
            "NORMAL": 1,
            "POSITION": 0,
            "TANGENT": 2,
            "TEXCOORD_0": 3
          },
          "indices": 4,
          "material": 0,
          "mode": 4
        }
      ]
    },
    {
      "name": "right_low__0",
      "primitives": [
        {
          "attributes": {
            "NORMAL": 6,
            "POSITION": 5,
            "TANGENT": 7,
            "TEXCOORD_0": 8
          },
          "indices": 9,
          "material": 0,
          "mode": 4
        }
      ]
    },
    {
      "name": "bottom_low__0",
      "primitives": [
        {
          "attributes": {
            "NORMAL": 11,
            "POSITION": 10,
            "TANGENT": 12,
            "TEXCOORD_0": 13
          },
          "indices": 14,
          "material": 0,
          "mode": 4
        }
      ]
    },
    {
      "name": "left_low__0",
      "primitives": [
        {
          "attributes": {
            "NORMAL": 16,
            "POSITION": 15,
            "TANGENT": 17,
            "TEXCOORD_0": 18
          },
          "indices": 19,
          "material": 0,
          "mode": 4
        }
      ]
    },
    {
      "name": "back_low__0",
      "primitives": [
        {
          "attributes": {
            "NORMAL": 21,
            "POSITION": 20,
            "TANGENT": 22,
            "TEXCOORD_0": 23
          },
          "indices": 24,
          "material": 0,
          "mode": 4
        }
      ]
    },
    {
      "name": "Shape2_low__0",
      "primitives": [
        {
          "attributes": {
            "NORMAL": 26,
            "POSITION": 25,
            "TANGENT": 27,
            "TEXCOORD_0": 28
          },
          "indices": 29,
          "material": 0,
          "mode": 4
        }
      ]
    },
    {
      "name": "Shape_low__0",
      "primitives": [
        {
          "attributes": {
            "NORMAL": 31,
            "POSITION": 30,
            "TANGENT": 32,
            "TEXCOORD_0": 33
          },
          "indices": 34,
          "material": 0,
          "mode": 4
        }
      ]
    },
    {
      "name": "spirals_low__0",
      "primitives": [
        {
          "attributes": {
            "NORMAL": 36,
            "POSITION": 35,
            "TANGENT": 37,
            "TEXCOORD_0": 38
          },
          "indices": 39,
          "material": 0,
          "mode": 4
        }
      ]
    },
    {
      "name": "Plane002__0",
      "primitives": [
        {
          "attributes": {
            "NORMAL": 41,
            "POSITION": 40,
            "TANGENT": 42,
            "TEXCOORD_0": 43
          },
          "indices": 44,
          "material": 0,
          "mode": 4
        }
      ]
    },
    {
      "name": "button_low__0",
      "primitives": [
        {
          "attributes": {
            "NORMAL": 46,
            "POSITION": 45,
            "TANGENT": 47,
            "TEXCOORD_0": 48
          },
          "indices": 49,
          "material": 0,
          "mode": 4
        }
      ]
    },
    {
      "name": "wing7_low_Unwrap Texture Checker Material_0",
      "primitives": [
        {
          "attributes": {
            "NORMAL": 51,
            "POSITION": 50,
            "TANGENT": 52,
            "TEXCOORD_0": 53
          },
          "indices": 54,
          "material": 1,
          "mode": 4
        }
      ]
    },
    {
      "name": "wing3_low__0",
      "primitives": [
        {
          "attributes": {
            "NORMAL": 56,
            "POSITION": 55,
            "TANGENT": 57,
            "TEXCOORD_0": 58
          },
          "indices": 59,
          "material": 0,
          "mode": 4
        }
      ]
    },
    {
      "name": "wing8_low_Unwrap Texture Checker Material_0",
      "primitives": [
        {
          "attributes": {
            "NORMAL": 61,
            "POSITION": 60,
            "TANGENT": 62,
            "TEXCOORD_0": 63
          },
          "indices": 64,
          "material": 1,
          "mode": 4
        }
      ]
    },
    {
      "name": "wing4_low_Unwrap Texture Checker Material_0",
      "primitives": [
        {
          "attributes": {
            "NORMAL": 66,
            "POSITION": 65,
            "TANGENT": 67,
            "TEXCOORD_0": 68
          },
          "indices": 69,
          "material": 1,
          "mode": 4
        }
      ]
    },
    {
      "name": "wing1_low_Unwrap Texture Checker Material_0",
      "primitives": [
        {
          "attributes": {
            "NORMAL": 71,
            "POSITION": 70,
            "TANGENT": 72,
            "TEXCOORD_0": 73
          },
          "indices": 74,
          "material": 1,
          "mode": 4
        }
      ]
    },
    {
      "name": "wing5_low_Unwrap Texture Checker Material_0",
      "primitives": [
        {
          "attributes": {
            "NORMAL": 76,
            "POSITION": 75,
            "TANGENT": 77,
            "TEXCOORD_0": 78
          },
          "indices": 79,
          "material": 1,
          "mode": 4
        }
      ]
    },
    {
      "name": "wing2_low__0",
      "primitives": [
        {
          "attributes": {
            "NORMAL": 81,
            "POSITION": 80,
            "TANGENT": 82,
            "TEXCOORD_0": 83
          },
          "indices": 84,
          "material": 0,
          "mode": 4
        }
      ]
    },
    {
      "name": "wing6_low_Unwrap Texture Checker Material_0",
      "primitives": [
        {
          "attributes": {
            "NORMAL": 86,
            "POSITION": 85,
            "TANGENT": 87,
            "TEXCOORD_0": 88
          },
          "indices": 89,
          "material": 1,
          "mode": 4
        }
      ]
    },
    {
      "name": "top_low__0",
      "primitives": [
        {
          "attributes": {
            "NORMAL": 91,
            "POSITION": 90,
            "TANGENT": 92,
            "TEXCOORD_0": 93
          },
          "indices": 94,
          "material": 0,
          "mode": 4
        }
      ]
    },
    {
      "name": "vintik3_low__0",
      "primitives": [
        {
          "attributes": {
            "NORMAL": 96,
            "POSITION": 95,
            "TANGENT": 97,
            "TEXCOORD_0": 98
          },
          "indices": 99,
          "material": 0,
          "mode": 4
        }
      ]
    },
    {
      "name": "vintik4_low__0",
      "primitives": [
        {
          "attributes": {
            "NORMAL": 101,
            "POSITION": 100,
            "TANGENT": 102,
            "TEXCOORD_0": 103
          },
          "indices": 104,
          "material": 0,
          "mode": 4
        }
      ]
    },
    {
      "name": "vintik1_low__0",
      "primitives": [
        {
          "attributes": {
            "NORMAL": 106,
            "POSITION": 105,
            "TANGENT": 107,
            "TEXCOORD_0": 108
          },
          "indices": 109,
          "material": 0,
          "mode": 4
        }
      ]
    },
    {
      "name": "vintik2_low__0",
      "primitives": [
        {
          "attributes": {
            "NORMAL": 111,
            "POSITION": 110,
            "TANGENT": 112,
            "TEXCOORD_0": 113
          },
          "indices": 114,
          "material": 0,
          "mode": 4
        }
      ]
    },
    {
      "name": "vint3_low__0",
      "primitives": [
        {
          "attributes": {
            "NORMAL": 116,
            "POSITION": 115,
            "TANGENT": 117,
            "TEXCOORD_0": 118
          },
          "indices": 119,
          "material": 0,
          "mode": 4
        }
      ]
    },
    {
      "name": "vint1_low__0",
      "primitives": [
        {
          "attributes": {
            "NORMAL": 121,
            "POSITION": 120,
            "TANGENT": 122,
            "TEXCOORD_0": 123
          },
          "indices": 124,
          "material": 0,
          "mode": 4
        }
      ]
    },
    {
      "name": "vint4_low__0",
      "primitives": [
        {
          "attributes": {
            "NORMAL": 126,
            "POSITION": 125,
            "TANGENT": 127,
            "TEXCOORD_0": 128
          },
          "indices": 129,
          "material": 0,
          "mode": 4
        }
      ]
    },
    {
      "name": "vint2_low__0",
      "primitives": [
        {
          "attributes": {
            "NORMAL": 131,
            "POSITION": 130,
            "TANGENT": 132,
            "TEXCOORD_0": 133
          },
          "indices": 134,
          "material": 0,
          "mode": 4
        }
      ]
    },
    {
      "name": "Cylinder_low__0",
      "primitives": [
        {
          "attributes": {
            "NORMAL": 136,
            "POSITION": 135,
            "TANGENT": 137,
            "TEXCOORD_0": 138
          },
          "indices": 139,
          "material": 0,
          "mode": 4
        }
      ]
    },
    {
      "name": "vilki_low__0",
      "primitives": [
        {
          "attributes": {
            "NORMAL": 141,
            "POSITION": 140,
            "TANGENT": 142,
            "TEXCOORD_0": 143
          },
          "indices": 144,
          "material": 0,
          "mode": 4
        }
      ]
    },
    {
      "name": "reiki_low__0",
      "primitives": [
        {
          "attributes": {
            "NORMAL": 146,
            "POSITION": 145,
            "TANGENT": 147,
            "TEXCOORD_0": 148
          },
          "indices": 149,
          "material": 0,
          "mode": 4
        }
      ]
    }
  ],
  "nodes": [
    {
      "children": [
        1
      ],
      "matrix": [
        1.0,
        0.0,
        0.0,
        0.0,
        0.0,
        2.220446049250313e-16,
        -1.0,
        0.0,
        0.0,
        1.0,
        2.220446049250313e-16,
        0.0,
        0.0,
        0.0,
        0.0,
        1.0
      ],
      "name": "Sketchfab_model"
    },
    {
      "children": [
        2
      ],
      "matrix": [
        0.02539999969303608,
        0.0,
        0.0,
        0.0,
        0.0,
        0.0,
        0.02539999969303608,
        0.0,
        0.0,
        -0.02539999969303608,
        0.0,
        0.0,
        0.0,
        0.0,
        0.0,
        1.0
      ],
      "name": "da79340e30da4c74880e18643a7c7ce5.fbx"
    },
    {
      "children": [
        3
      ],
      "name": "RootNode"
    },
    {
      "children": [
        4,
        7,
        10,
        13,
        16,
        19,
        22,
        25,
        27,
        29,
        32,
        34,
        36,
        38,
        40,
        42,
        44,
        46,
        48,
        51,
        54,
        57,
        60,
        63,
        65,
        67,
        69,
        71,
        73,
        76
      ],
      "matrix": [
        1.0,
        0.0,
        0.0,
        0.0,
        0.0,
        2.220446049250313e-16,
        -1.0,
        0.0,
        0.0,
        1.0,
        2.220446049250313e-16,
        0.0,
        0.0,
        0.0,
        0.0,
        1.0
      ],
      "name": "Group001"
    },
    {
      "children": [
        5
      ],
      "matrix": [
        1.0,
        0.0,
        0.0,
        0.0,
        0.0,
        1.0,
        0.0,
        0.0,
        0.0,
        0.0,
        1.0,
        0.0,
        0.0,
        -3.0117321014404297,
        -0.005613803863525391,
        1.0
      ],
      "name": "front_low"
    },
    {
      "children": [
        6
      ],
      "matrix": [
        1.0,
        0.0,
        -0.0,
        0.0,
        0.0,
        1.0,
        0.0,
        0.0,
        0.0,
        0.0,
        1.0,
        0.0,
        0.0,
        9.79764175415039,
        -1.6929134130477905,
        1.0
      ],
      "name": "Object_5"
    },
    {
      "mesh": 0,
      "name": "front_low__0"
    },
    {
      "children": [
        8
      ],
      "matrix": [
        1.0,
        0.0,
        0.0,
        0.0,
        0.0,
        1.0,
        0.0,
        0.0,
        0.0,
        0.0,
        1.0,
        0.0,
        2.9427177906036377,
        -0.05059051513671875,
        -0.005614280700683594,
        1.0
      ],
      "name": "right_low"
    },
    {
      "children": [
        9
      ],
      "matrix": [
        1.0,
        0.0,
        -0.0,
        0.0,
        0.0,
        1.0,
        0.0,
        0.0,
        0.0,
        0.0,
        1.0,
        0.0,
        -2.9427177906036377,
        6.8365020751953125,
        -1.6929130554199219,
        1.0
      ],
      "name": "Object_8"
    },
    {
      "mesh": 1,
      "name": "right_low__0"
    },
    {
      "children": [
        11
      ],
      "matrix": [
        1.0,
        0.0,
        0.0,
        0.0,
        0.0,
        1.0,
        0.0,
        0.0,
        0.0,
        0.0,
        1.0,
        0.0,
        0.0,
        -3.0259265899658203,
        -0.005613803863525391,
        1.0
      ],
      "name": "bottom_low"
    },
    {
      "children": [
        12
      ],
      "matrix": [
        1.0,
        0.0,
        -0.0,
        0.0,
        0.0,
        1.0,
        0.0,
        0.0,
        0.0,
        0.0,
        1.0,
        0.0,
        0.0,
        9.811836242675781,
        -1.6929134130477905,
        1.0
      ],
      "name": "Object_11"
    },
    {
      "mesh": 2,
      "name": "bottom_low__0"
    },
    {
      "children": [
        14
      ],
      "matrix": [
        1.0,
        0.0,
        0.0,
        0.0,
        0.0,
        1.0,
        0.0,
        0.0,
        0.0,
        0.0,
        1.0,
        0.0,
        -2.9427177906036377,
        -0.05059051513671875,
        -0.005613803863525391,
        1.0
      ],
      "name": "left_low"
    },
    {
      "children": [
        15
      ],
      "matrix": [
        1.0,
        0.0,
        -0.0,
        0.0,
        0.0,
        1.0,
        0.0,
        0.0,
        0.0,
        0.0,
        1.0,
        0.0,
        2.9427177906036377,
        6.8365020751953125,
        -1.6929134130477905,
        1.0
      ],
      "name": "Object_14"
    },
    {
      "mesh": 3,
      "name": "left_low__0"
    },
    {
      "children": [
        17
      ],
      "matrix": [
        1.0,
        0.0,
        0.0,
        0.0,
        0.0,
        1.0,
        0.0,
        0.0,
        0.0,
        0.0,
        1.0,
        0.0,
        0.0,
        2.77410888671875,
        -0.005614280700683594,
        1.0
      ],
      "name": "back_low"
    },
    {
      "children": [
        18
      ],
      "matrix": [
        1.0,
        0.0,
        -0.0,
        0.0,
        0.0,
        1.0,
        0.0,
        0.0,
        0.0,
        0.0,
        1.0,
        0.0,
        0.0,
        4.011798858642578,
        -1.6929131746292114,
        1.0
      ],
      "name": "Object_17"
    },
    {
      "mesh": 4,
      "name": "back_low__0"
    },
    {
      "children": [
        20
      ],
      "matrix": [
        0.9999999999999847,
        -1.7484555314694907e-07,
        -1.4693679385278597e-39,
        0.0,
        1.7484555314694907e-07,
        0.9999999999999847,
        -3.8893845486632136e-62,
        0.0,
        1.4693679385278372e-39,
        -2.5691244998829583e-46,
        1.0,
        0.0,
        0.0,
        -1.1828737258911133,
        1.5340800285339355,
        1.0
      ],
      "name": "Shape2_low"
    },
    {
      "children": [
        21
      ],
      "matrix": [
        1.0,
        0.0,
        -0.0,
        0.0,
        0.0,
        1.0,
        0.0,
        0.0,
        0.0,
        0.0,
        1.0,
        0.0,
        -1.4175946712493896,
        -0.006510977633297443,
        -0.4364151954650879,
        1.0
      ],
      "name": "Object_20"
    },
    {
      "mesh": 5,
      "name": "Shape2_low__0"
    },
    {
      "children": [
        23
      ],
      "matrix": [
        -0.999999999999678,
        8.026785282113968e-07,
        -6.525304467998525e-55,
        0.0,
        -8.026785282113968e-07,
        -0.999999999999678,
        1.232595164407831e-32,
        0.0,
        9.893776724473621e-39,
        1.2325951644074338e-32,
        1.0,
        0.0,
        0.0,
        1.08184814453125,
        1.5340800285339355,
        1.0
      ],
      "name": "Shape_low"
    },
    {
      "children": [
        24
      ],
      "matrix": [
        1.0,
        0.0,
        -0.0,
        0.0,
        0.0,
        1.0,
        0.0,
        0.0,
        0.0,
        0.0,
        1.0,
        0.0,
        -1.4175946712493896,
        -0.006510977633297443,
        -0.4364151954650879,
        1.0
      ],
      "name": "Object_23"
    },
    {
      "mesh": 6,
      "name": "Shape_low__0"
    },
    {
      "children": [
        26
      ],
      "matrix": [
        1.0,
        0.0,
        0.0,
        0.0,
        0.0,
        1.0,
        0.0,
        0.0,
        0.0,
        0.0,
        1.0,
        0.0,
        0.0,
        -0.05059051513671875,
        1.6158747673034668,
        1.0
      ],
      "name": "spirals_low"
    },
    {
      "mesh": 7,
      "name": "spirals_low__0"
    },
    {
      "children": [
        28
      ],
      "matrix": [
        1.0,
        0.0,
        0.0,
        0.0,
        0.0,
        1.0,
        0.0,
        0.0,
        0.0,
        0.0,
        1.0,
        0.0,
        0.0,
        -0.05059051513671875,
        0.3770632743835449,
        1.0
      ],
      "name": "Plane002"
    },
    {
      "mesh": 8,
      "name": "Plane002__0"
    },
    {
      "children": [
        30
      ],
      "matrix": [
        -0.9999999999999887,
        1.5099580265055075e-07,
        1.3234889800848443e-23,
        0.0,
        6.189523189499574e-15,
        4.0991359154816425e-08,
        0.9377729892730704,
        0.0,
        1.509958026505506e-07,
        0.9999999999999877,
        -4.371138828673793e-08,
        0.0,
        -0.8167569041252136,
        3.0192031860351563,
        -0.10303211212158203,
        1.0
      ],
      "name": "button_low"
    },
    {
      "children": [
        31
      ],
      "matrix": [
        1.0,
        0.0,
        -0.0,
        0.0,
        0.0,
        1.0,
        0.0,
        0.0,
        0.0,
        0.0,
        1.0,
        0.0,
        0.6094801425933838,
        -2.8825343179050833e-07,
        -0.7297326326370239,
        1.0
      ],
      "name": "Object_30"
    },
    {
      "mesh": 9,
      "name": "button_low__0"
    },
    {
      "children": [
        33
      ],
      "matrix": [
        -0.7071066023725874,
        -0.7071069600004621,
        0.0,
        0.0,
        0.7071069600004621,
        -0.7071066023725874,
        0.0,
        0.0,
        0.0,
        0.0,
        1.0,
        0.0,
        9.782346523934393e-07,
        -0.05059051513671875,
        1.1725106239318848,
        1.0
      ],
      "name": "wing7_low"
    },
    {
      "mesh": 10,
      "name": "wing7_low_Unwrap Texture Checker Material_0"
    },
    {
      "children": [
        35
      ],
      "matrix": [
        0.7071068407911907,
        0.7071067215818994,
        0.0,
        0.0,
        -0.7071067215818994,
        0.7071068407911907,
        0.0,
        0.0,
        0.0,
        0.0,
        1.0,
        0.0,
        -3.328926823087386e-08,
        -0.05059051513671875,
        1.1725106239318848,
        1.0
      ],
      "name": "wing3_low"
    },
    {
      "mesh": 11,
      "name": "wing3_low__0"
    },
    {
      "children": [
        37
      ],
      "matrix": [
        -0.9999999999999889,
        -1.5099580265055077e-07,
        0.0,
        0.0,
        1.5099580265055077e-07,
        -0.9999999999999889,
        0.0,
        0.0,
        0.0,
        0.0,
        1.0,
        0.0,
        1.3629266959469533e-06,
        -0.05059051513671875,
        1.1725106239318848,
        1.0
      ],
      "name": "wing8_low"
    },
    {
      "mesh": 12,
      "name": "wing8_low_Unwrap Texture Checker Material_0"
    },
    {
      "children": [
        39
      ],
      "matrix": [
        1.0,
        0.0,
        0.0,
        0.0,
        0.0,
        1.0,
        0.0,
        0.0,
        0.0,
        0.0,
        1.0,
        0.0,
        -5.44421823178709e-07,
        -0.05059051513671875,
        1.1725106239318848,
        1.0
      ],
      "name": "wing4_low"
    },
    {
      "mesh": 13,
      "name": "wing4_low_Unwrap Texture Checker Material_0"
    },
    {
      "children": [
        41
      ],
      "matrix": [
        -0.7071068407911907,
        0.7071067215818991,
        0.0,
        0.0,
        -0.7071067215818991,
        -0.7071068407911907,
        0.0,
        0.0,
        0.0,
        0.0,
        1.0,
        0.0,
        1.3092374047118938e-06,
        -0.05059051513671875,
        1.1725106239318848,
        1.0
      ],
      "name": "wing1_low"
    },
    {
      "mesh": 14,
      "name": "wing1_low_Unwrap Texture Checker Material_0"
    },
    {
      "children": [
        43
      ],
      "matrix": [
        0.707106900395829,
        -0.7071066619772459,
        0.0,
        0.0,
        0.7071066619772459,
        0.707106900395829,
        0.0,
        0.0,
        0.0,
        0.0,
        1.0,
        0.0,
        -3.766365352930734e-07,
        -0.05059051513671875,
        1.1725106239318848,
        1.0
      ],
      "name": "wing5_low"
    },
    {
      "mesh": 15,
      "name": "wing5_low_Unwrap Texture Checker Material_0"
    },
    {
      "children": [
        45
      ],
      "matrix": [
        1.1924880749525357e-08,
        0.9999999999999999,
        0.0,
        0.0,
        -0.9999999999999999,
        1.1924880749525357e-08,
        0.0,
        0.0,
        0.0,
        0.0,
        1.0,
        0.0,
        7.152557373046875e-07,
        -0.05059051513671875,
        1.1725106239318848,
        1.0
      ],
      "name": "wing2_low"
    },
    {
      "mesh": 16,
      "name": "wing2_low__0"
    },
    {
      "children": [
        47
      ],
      "matrix": [
        -1.6292068472090193e-07,
        -0.9999999999999868,
        0.0,
        0.0,
        0.9999999999999868,
        -1.6292068472090193e-07,
        -1.4693679385278592e-39,
        0.0,
        1.4693679385278396e-39,
        -2.393904308150316e-46,
        1.0,
        0.0,
        2.384185791015625e-07,
        -0.05059051513671875,
        1.1725106239318848,
        1.0
      ],
      "name": "wing6_low"
    },
    {
      "mesh": 17,
      "name": "wing6_low_Unwrap Texture Checker Material_0"
    },
    {
      "children": [
        49
      ],
      "matrix": [
        1.0,
        0.0,
        0.0,
        0.0,
        0.0,
        1.0,
        0.0,
        0.0,
        0.0,
        0.0,
        1.0,
        0.0,
        1.1920928955078125e-07,
        -0.05059051513671875,
        1.0321650505065918,
        1.0
      ],
      "name": "top_low"
    },
    {
      "children": [
        50
      ],
      "matrix": [
        1.0,
        0.0,
        -0.0,
        0.0,
        0.0,
        1.0,
        0.0,
        0.0,
        0.0,
        0.0,
        1.0,
        0.0,
        -1.1920928955078125e-07,
        6.8365020751953125,
        -2.7306923866271973,
        1.0
      ],
      "name": "Object_49"
    },
    {
      "mesh": 18,
      "name": "top_low__0"
    },
    {
      "children": [
        52
      ],
      "matrix": [
        -0.09782620370411617,
        -0.365091914194839,
        6.465456210659924e-50,
        0.0,
        0.365091914194839,
        -0.09782620370411617,
        -7.7037196454511834e-34,
        0.0,
        8.28700645759556e-34,
        -2.2204994148005958e-34,
        0.42093199491500854,
        0.0,
        -2.420078754425049,
        -2.837204933166504,
        1.6936860084533691,
        1.0
      ],
      "name": "vintik3_low"
    },
    {
      "children": [
        53
      ],
      "matrix": [
        1.0,
        0.0,
        -0.0,
        0.0,
        0.0,
        1.0,
        0.0,
        0.0,
        0.0,
        0.0,
        1.0,
        0.0,
        0.0,
        0.0,
        -0.3578442931175232,
        1.0
      ],
      "name": "Object_52"
    },
    {
      "mesh": 19,
      "name": "vintik3_low__0"
    },
    {
      "children": [
        55
      ],
      "matrix": [
        -0.09782620370411617,
        -0.365091914194839,
        6.465456210659924e-50,
        0.0,
        0.365091914194839,
        -0.09782620370411617,
        -7.7037196454511834e-34,
        0.0,
        8.28700645759556e-34,
        -2.2204994148005958e-34,
        0.42093199491500854,
        0.0,
        2.420078754425049,
        -2.837204933166504,
        1.6936860084533691,
        1.0
      ],
      "name": "vintik4_low"
    },
    {
      "children": [
        56
      ],
      "matrix": [
        1.0,
        0.0,
        -0.0,
        0.0,
        0.0,
        1.0,
        0.0,
        0.0,
        0.0,
        0.0,
        1.0,
        0.0,
        0.0,
        0.0,
        -0.3578442931175232,
        1.0
      ],
      "name": "Object_55"
    },
    {
      "mesh": 20,
      "name": "vintik4_low__0"
    },
    {
      "children": [
        58
      ],
      "matrix": [
        -0.09782620370411617,
        -0.365091914194839,
        6.465456210659924e-50,
        0.0,
        0.365091914194839,
        -0.09782620370411617,
        -7.7037196454511834e-34,
        0.0,
        8.28700645759556e-34,
        -2.2204994148005958e-34,
        0.42093199491500854,
        0.0,
        -2.420078754425049,
        2.73602294921875,
        1.6936860084533691,
        1.0
      ],
      "name": "vintik1_low"
    },
    {
      "children": [
        59
      ],
      "matrix": [
        1.0,
        0.0,
        -0.0,
        0.0,
        0.0,
        1.0,
        0.0,
        0.0,
        0.0,
        0.0,
        1.0,
        0.0,
        0.0,
        0.0,
        -0.3578442931175232,
        1.0
      ],
      "name": "Object_58"
    },
    {
      "mesh": 21,
      "name": "vintik1_low__0"
    },
    {
      "children": [
        61
      ],
      "matrix": [
        -0.09782620370411617,
        -0.365091914194839,
        6.465456210659924e-50,
        0.0,
        0.365091914194839,
        -0.09782620370411617,
        -7.7037196454511834e-34,
        0.0,
        8.28700645759556e-34,
        -2.2204994148005958e-34,
        0.42093199491500854,
        0.0,
        2.420078754425049,
        2.73602294921875,
        1.6936860084533691,
        1.0
      ],
      "name": "vintik2_low"
    },
    {
      "children": [
        62
      ],
      "matrix": [
        1.0,
        0.0,
        -0.0,
        0.0,
        0.0,
        1.0,
        0.0,
        0.0,
        0.0,
        0.0,
        1.0,
        0.0,
        0.0,
        0.0,
        -0.3578442931175232,
        1.0
      ],
      "name": "Object_61"
    },
    {
      "mesh": 22,
      "name": "vintik2_low__0"
    },
    {
      "children": [
        64
      ],
      "matrix": [
        -0.19472415814061528,
        -0.7267200576078311,
        6.162975763011014e-33,
        0.0,
        0.7267200576078311,
        -0.19472415814061528,
        5.147828600233677e-49,
        0.0,
        1.776401853063472e-33,
        6.629618375654851e-33,
        0.8378720283508301,
        0.0,
        -2.3622047901153564,
        -2.2872066497802734,
        1.37080717086792,
        1.0
      ],
      "name": "vint3_low"
    },
    {
      "mesh": 23,
      "name": "vint3_low__0"
    },
    {
      "children": [
        66
      ],
      "matrix": [
        -0.19472415814061528,
        -0.7267200576078311,
        6.162975763011014e-33,
        0.0,
        0.7267200576078311,
        -0.19472415814061528,
        5.147828600233677e-49,
        0.0,
        1.776401853063472e-33,
        6.629618375654851e-33,
        0.8378720283508301,
        0.0,
        -2.3622047901153564,
        2.168701171875,
        1.37080717086792,
        1.0
      ],
      "name": "vint1_low"
    },
    {
      "mesh": 24,
      "name": "vint1_low__0"
    },
    {
      "children": [
        68
      ],
      "matrix": [
        -0.19472415814061528,
        -0.7267200576078311,
        6.162975763011014e-33,
        0.0,
        0.7267200576078311,
        -0.19472415814061528,
        5.147828600233677e-49,
        0.0,
        1.776401853063472e-33,
        6.629618375654851e-33,
        0.8378720283508301,
        0.0,
        2.3622047901153564,
        -2.2872066497802734,
        1.37080717086792,
        1.0
      ],
      "name": "vint4_low"
    },
    {
      "mesh": 25,
      "name": "vint4_low__0"
    },
    {
      "children": [
        70
      ],
      "matrix": [
        -0.19472415814061528,
        -0.7267200576078311,
        6.162975763011014e-33,
        0.0,
        0.7267200576078311,
        -0.19472415814061528,
        5.147828600233677e-49,
        0.0,
        1.776401853063472e-33,
        6.629618375654851e-33,
        0.8378720283508301,
        0.0,
        2.3622047901153564,
        2.168701171875,
        1.37080717086792,
        1.0
      ],
      "name": "vint2_low"
    },
    {
      "mesh": 26,
      "name": "vint2_low__0"
    },
    {
      "children": [
        72
      ],
      "matrix": [
        1.0,
        0.0,
        0.0,
        0.0,
        0.0,
        1.0,
        0.0,
        0.0,
        0.0,
        0.0,
        1.0,
        0.0,
        0.0,
        -0.05059051513671875,
        1.1725106239318848,
        1.0
      ],
      "name": "Cylinder_low"
    },
    {
      "mesh": 27,
      "name": "Cylinder_low__0"
    },
    {
      "children": [
        74
      ],
      "matrix": [
        1.0,
        0.0,
        0.0,
        0.0,
        0.0,
        1.0,
        0.0,
        0.0,
        0.0,
        0.0,
        1.0,
        0.0,
        -1.805394172668457,
        2.6932830810546875,
        -0.0913233757019043,
        1.0
      ],
      "name": "vilki_low"
    },
    {
      "children": [
        75
      ],
      "matrix": [
        1.0,
        0.0,
        -0.0,
        0.0,
        0.0,
        1.0,
        0.0,
        0.0,
        0.0,
        0.0,
        1.0,
        0.0,
        0.02214348316192627,
        -0.42779541015625,
        -0.17108213901519775,
        1.0
      ],
      "name": "Object_74"
    },
    {
      "mesh": 28,
      "name": "vilki_low__0"
    },
    {
      "children": [
        77
      ],
      "matrix": [
        -0.999999999999678,
        8.026785282113967e-07,
        0.0,
        0.0,
        3.290288382677652e-14,
        4.099135905070271e-08,
        0.9377729892730705,
        0.0,
        8.026785282113959e-07,
        0.999999999999677,
        -4.371138828673793e-08,
        0.0,
        -1.4262371063232422,
        2.9231109619140625,
        -0.10303235054016113,
        1.0
      ],
      "name": "reiki_low"
    },
    {
      "children": [
        78
      ],
      "matrix": [
        1.0,
        0.0,
        -0.0,
        0.0,
        0.0,
        1.0,
        0.0,
        0.0,
        0.0,
        0.0,
        1.0,
        0.0,
        -5.539425984579793e-08,
        -2.9535012657788684e-08,
        -0.633636474609375,
        1.0
      ],
      "name": "Object_77"
    },
    {
      "mesh": 29,
      "name": "reiki_low__0"
    }
  ],
  "samplers": [
    {
      "magFilter": 9729,
      "minFilter": 9987,
      "wrapS": 10497,
      "wrapT": 10497
    }
  ],
  "scene": 0,
  "scenes": [
    {
      "name": "Sketchfab_Scene",
      "nodes": [
        0
      ]
    }
  ],
  "textures": [
    {
      "sampler": 0,
      "source": 0
    },
    {
      "sampler": 0,
      "source": 1
    },
    {
      "sampler": 0,
      "source": 2
    }
  ]
}
