{
  "accessors": [
    {
      "bufferView": 2,
      "componentType": 5126,
      "count": 3760,
      "max": [
        6.215094566345215,
        57.980045318603516,
        6.145603179931641
      ],
      "min": [
        -6.214713096618652,
        0.0,
        -6.145598888397217
      ],
      "type": "VEC3"
    },
    {
      "bufferView": 2,
      "byteOffset": 45120,
      "componentType": 5126,
      "count": 3760,
      "max": [
        0.9998862147331238,
        1.0,
        0.9999685883522034
      ],
      "min": [
        -0.9998859167098999,
        -1.0,
        -0.9999685287475586
      ],
      "type": "VEC3"
    },
    {
      "bufferView": 1,
      "componentType": 5126,
      "count": 3760,
      "max": [
        0.9893662929534912,
        0.9909672141075134
      ],
      "min": [
        0.01011340320110321,
        0.008137285709381104
      ],
      "type": "VEC2"
    },
    {
      "bufferView": 1,
      "byteOffset": 30080,
      "componentType": 5126,
      "count": 3760,
      "max": [
        0.9893662929534912,
        0.9909672141075134
      ],
      "min": [
        0.01011340320110321,
        0.008137285709381104
      ],
      "type": "VEC2"
    },
    {
      "bufferView": 1,
      "byteOffset": 60160,
      "componentType": 5126,
      "count": 3760,
      "max": [
        0.9893662929534912,
        0.9909672141075134
      ],
      "min": [
        0.01011340320110321,
        0.008137285709381104
      ],
      "type": "VEC2"
    },
    {
      "bufferView": 0,
      "componentType": 5125,
      "count": 18144,
      "type": "SCALAR"
    }
  ],
  "asset": {
    "extras": {
      "author": "Hartoto (https://sketchfab.com/hartoto)",
      "license": "CC-BY-4.0 (http://creativecommons.org/licenses/by/4.0/)",
      "source": "https://sketchfab.com/3d-models/dna-23dc6502085c4c0e83771a4e4088bce8",
      "title": "DNA"
    },
    "generator": "Sketchfab-15.27.0",
    "version": "2.0"
  },
  "bufferViews": [
    {
      "buffer": 0,
      "byteLength": 72576,
      "name": "floatBufferViews",
      "target": 34963
    },
    {
      "buffer": 0,
      "byteLength": 90240,
      "byteOffset": 72576,
      "byteStride": 8,
      "name": "floatBufferViews",
      "target": 34962
    },
    {
      "buffer": 0,
      "byteLength": 90240,
      "byteOffset": 162816,
      "byteStride": 12,
      "name": "floatBufferViews",
      "target": 34962
    }
  ],
  "buffers": [
    {
      "byteLength": 253056,
      "uri": "scene.bin"
    }
  ],
  "extensionsRequired": [
    "KHR_materials_pbrSpecularGlossiness"
  ],
  "extensionsUsed": [
    "KHR_materials_pbrSpecularGlossiness"
  ],
  "images": [
    {
      "uri": "textures/material_diffuse.png"
    },
    {
      "uri": "textures/material_specularGlossiness.png"
    }
  ],
  "materials": [
    {
      "doubleSided": true,
      "extensions": {
        "KHR_materials_pbrSpecularGlossiness": {
          "diffuseFactor": [
            1.0,
            1.0,
            1.0,
            1.0
          ],
          "diffuseTexture": {
            "index": 0
          },
          "glossinessFactor": 1.0,
          "specularFactor": [
            1.0,
            1.0,
            1.0
          ],
          "specularGlossinessTexture": {
            "index": 1
          }
        }
      },
      "name": "material"
    }
  ],
  "meshes": [
    {
      "name": "Object_0",
      "primitives": [
        {
          "attributes": {
            "NORMAL": 1,
            "POSITION": 0,
            "TEXCOORD_0": 2,
            "TEXCOORD_1": 3,
            "TEXCOORD_2": 4
          },
          "indices": 5,
          "material": 0,
          "mode": 4
        }
      ]
    }
  ],
  "nodes": [
    {
      "children": [
        1
      ],
      "matrix": [
        19.318927764892578,
        0.0,
        0.0,
        0.0,
        0.0,
        4.289663683130791e-15,
        -19.318927764892578,
        0.0,
        0.0,
        19.318927764892578,
        4.289663683130791e-15,
        0.0,
        0.0,
        0.0,
        0.0,
        1.0
      ],
      "name": "Sketchfab_model"
    },
    {
      "children": [
        2
      ],
      "name": "root"
    },
    {
      "children": [
        3
      ],
      "matrix": [
        1.0,
        0.0,
        0.0,
        0.0,
        0.0,
        2.220446049250313e-16,
        1.0,
        0.0,
        0.0,
        -1.0,
        2.220446049250313e-16,
        0.0,
        0.0,
        0.0,
        0.0,
        1.0
      ],
      "name": "GLTF_SceneRootNode"
    },
    {
      "children": [
        4
      ],
      "name": "root_0"
    },
    {
      "children": [
        5
      ],
      "matrix": [
        0.00883062370121479,
        0.0,
        0.0,
        0.0,
        0.0,
        0.00883062370121479,
        0.0,
        0.0,
        0.0,
        0.0,
        0.00883062370121479,
        0.0,
        -1.7342612181892036e-06,
        -0.25599998235702515,
        0.25599998235702515,
        1.0
      ],
      "name": "node_id30_1"
    },
    {
      "mesh": 0,
      "name": "Object_5"
    }
  ],
  "samplers": [
    {
      "magFilter": 9729,
      "minFilter": 9987,
      "wrapS": 10497,
      "wrapT": 10497
    }
  ],
  "scene": 0,
  "scenes": [
    {
      "name": "Sketchfab_Scene",
      "nodes": [
        0
      ]
    }
  ],
  "textures": [
    {
      "sampler": 0,
      "source": 0
    },
    {
      "sampler": 0,
      "source": 1
    }
  ]
}
