{
  "accessors": [
    {
      "bufferView": 2,
      "componentType": 5126,
      "count": 300,
      "max": [
        0.9112458825111389,
        17.065637588500977,
        0.9112460613250732
      ],
      "min": [
        -0.911246120929718,
        -1.0087369680404663,
        -0.9112465381622314
      ],
      "type": "VEC3"
    },
    {
      "bufferView": 2,
      "byteOffset": 3600,
      "componentType": 5126,
      "count": 300,
      "max": [
        1.0,
        0.9368850588798523,
        1.0
      ],
      "min": [
        -1.0,
        -0.24315215647220612,
        -1.0
      ],
      "type": "VEC3"
    },
    {
      "bufferView": 1,
      "componentType": 5126,
      "count": 300,
      "max": [
        0.6299257874488831,
        0.9280382990837097
      ],
      "min": [
        0.3700741231441498,
        0.09509269148111343
      ],
      "type": "VEC2"
    },
    {
      "bufferView": 0,
      "componentType": 5125,
      "count": 456,
      "type": "SCALAR"
    },
    {
      "bufferView": 2,
      "byteOffset": 7200,
      "componentType": 5126,
      "count": 604,
      "max": [
        0.9303577542304993,
        0.9958881139755249,
        0.9303581714630127
      ],
      "min": [
        -0.9303580522537231,
        -1.0747487545013428,
        -0.9303585290908813
      ],
      "type": "VEC3"
    },
    {
      "bufferView": 2,
      "byteOffset": 14448,
      "componentType": 5126,
      "count": 604,
      "max": [
        0.9997014403343201,
        0.9368978142738342,
        0.9997023344039917
      ],
      "min": [
        -0.9997017979621887,
        -0.9368791580200195,
        -0.9997018575668335
      ],
      "type": "VEC3"
    },
    {
      "bufferView": 3,
      "componentType": 5126,
      "count": 604,
      "max": [
        0.9984819889068604,
        0.9921835064888,
        0.9998204708099365,
        1.0
      ],
      "min": [
        -0.9985033869743347,
        -0.5161079168319702,
        -0.998502790927887,
        -1.0
      ],
      "type": "VEC4"
    },
    {
      "bufferView": 1,
      "byteOffset": 2400,
      "componentType": 5126,
      "count": 604,
      "max": [
        0.6356626152992249,
        1.671515941619873
      ],
      "min": [
        -0.9849814772605896,
        0.020587291568517685
      ],
      "type": "VEC2"
    },
    {
      "bufferView": 0,
      "byteOffset": 1824,
      "componentType": 5125,
      "count": 930,
      "type": "SCALAR"
    },
    {
      "bufferView": 2,
      "byteOffset": 21696,
      "componentType": 5126,
      "count": 848,
      "max": [
        0.998013973236084,
        17.271583557128906,
        0.9812376499176025
      ],
      "min": [
        -0.9980356097221375,
        -15.772553443908691,
        -0.9980353116989136
      ],
      "type": "VEC3"
    },
    {
      "bufferView": 2,
      "byteOffset": 31872,
      "componentType": 5126,
      "count": 848,
      "max": [
        0.9988903999328613,
        0.2364989072084427,
        0.9998778104782104
      ],
      "min": [
        -0.9961426258087158,
        -0.6672545671463013,
        -0.9999985098838806
      ],
      "type": "VEC3"
    },
    {
      "bufferView": 3,
      "byteOffset": 9664,
      "componentType": 5126,
      "count": 848,
      "max": [
        1.0,
        0.9998787641525269,
        0.9974671006202698,
        1.0
      ],
      "min": [
        -0.8852638602256775,
        -0.9944465756416321,
        -0.9993422031402588,
        -1.0
      ],
      "type": "VEC4"
    },
    {
      "bufferView": 1,
      "byteOffset": 7232,
      "componentType": 5126,
      "count": 848,
      "max": [
        1.5561630725860596,
        6.141576766967773
      ],
      "min": [
        -1.302781343460083,
        -5.141576766967773
      ],
      "type": "VEC2"
    },
    {
      "bufferView": 0,
      "byteOffset": 5544,
      "componentType": 5125,
      "count": 2508,
      "type": "SCALAR"
    },
    {
      "bufferView": 2,
      "byteOffset": 42048,
      "componentType": 5126,
      "count": 188,
      "max": [
        1.028448224067688,
        2.1373226642608643,
        0.013284921646118164
      ],
      "min": [
        -1.0284485816955566,
        -1.3280389308929443,
        -0.013284444808959961
      ],
      "type": "VEC3"
    },
    {
      "bufferView": 2,
      "byteOffset": 44304,
      "componentType": 5126,
      "count": 188,
      "max": [
        0.9999999403953552,
        0.6087360382080078,
        1.0
      ],
      "min": [
        -0.9999999403953552,
        -0.5238641500473022,
        -0.013804792426526546
      ],
      "type": "VEC3"
    },
    {
      "bufferView": 1,
      "byteOffset": 14016,
      "componentType": 5126,
      "count": 188,
      "max": [
        0.8480452299118042,
        0.8458060026168823
      ],
      "min": [
        0.15193220973014832,
        -0.016457974910736084
      ],
      "type": "VEC2"
    },
    {
      "bufferView": 0,
      "byteOffset": 15576,
      "componentType": 5125,
      "count": 336,
      "type": "SCALAR"
    },
    {
      "bufferView": 2,
      "byteOffset": 46560,
      "componentType": 5126,
      "count": 804,
      "max": [
        0.9812371730804443,
        16.479995727539063,
        0.970557689666748
      ],
      "min": [
        -0.9812211394309998,
        -16.063451766967773,
        0.22954893112182617
      ],
      "type": "VEC3"
    },
    {
      "bufferView": 2,
      "byteOffset": 56208,
      "componentType": 5126,
      "count": 804,
      "max": [
        0.9999983906745911,
        0.9935487508773804,
        0.999997079372406
      ],
      "min": [
        -0.9999565482139587,
        -0.6726404428482056,
        -0.9969484210014343
      ],
      "type": "VEC3"
    },
    {
      "bufferView": 1,
      "byteOffset": 15520,
      "componentType": 5126,
      "count": 804,
      "max": [
        0.8480452299118042,
        0.8053932785987854
      ],
      "min": [
        0.15193220973014832,
        -0.016457974910736084
      ],
      "type": "VEC2"
    },
    {
      "bufferView": 0,
      "byteOffset": 16920,
      "componentType": 5125,
      "count": 1482,
      "type": "SCALAR"
    },
    {
      "bufferView": 2,
      "byteOffset": 65856,
      "componentType": 5126,
      "count": 328,
      "max": [
        0.998035192489624,
        1.9466242790222168,
        0.9980106353759766
      ],
      "min": [
        -0.9980143308639526,
        -1.018546462059021,
        0.0124053955078125
      ],
      "type": "VEC3"
    },
    {
      "bufferView": 2,
      "byteOffset": 69792,
      "componentType": 5126,
      "count": 328,
      "max": [
        0.9898586273193359,
        0.23467081785202026,
        0.9899073243141174
      ],
      "min": [
        -0.9898945093154907,
        -0.10396537184715271,
        -0.9896758794784546
      ],
      "type": "VEC3"
    },
    {
      "bufferView": 3,
      "byteOffset": 23232,
      "componentType": 5126,
      "count": 328,
      "max": [
        0.9901700019836426,
        0.0027495394460856915,
        0.9904022812843323,
        1.0
      ],
      "min": [
        -0.8910024762153625,
        -0.9434157013893127,
        -0.9903678297996521,
        -1.0
      ],
      "type": "VEC4"
    },
    {
      "bufferView": 1,
      "byteOffset": 21952,
      "componentType": 5126,
      "count": 328,
      "max": [
        4.315039157867432,
        2.1354730129241943
      ],
      "min": [
        -3.3378098011016846,
        -1.1354725360870361
      ],
      "type": "VEC2"
    },
    {
      "bufferView": 0,
      "byteOffset": 22848,
      "componentType": 5125,
      "count": 792,
      "type": "SCALAR"
    },
    {
      "bufferView": 2,
      "byteOffset": 73728,
      "componentType": 5126,
      "count": 2120,
      "max": [
        1.0284233093261719,
        17.42392349243164,
        1.0034313201904297
      ],
      "min": [
        -1.0284485816955566,
        -15.851935386657715,
        -0.9303585290908813
      ],
      "type": "VEC3"
    },
    {
      "bufferView": 2,
      "byteOffset": 99168,
      "componentType": 5126,
      "count": 2120,
      "max": [
        1.0,
        1.0,
        1.0
      ],
      "min": [
        -0.9999998807907104,
        -1.0,
        -1.0
      ],
      "type": "VEC3"
    },
    {
      "bufferView": 1,
      "byteOffset": 24576,
      "componentType": 5126,
      "count": 2120,
      "max": [
        4.316377639770508,
        1.6714961528778076
      ],
      "min": [
        -0.1969548463821411,
        -1.1354725360870361
      ],
      "type": "VEC2"
    },
    {
      "bufferView": 0,
      "byteOffset": 26016,
      "componentType": 5125,
      "count": 3396,
      "type": "SCALAR"
    },
    {
      "bufferView": 2,
      "byteOffset": 124608,
      "componentType": 5126,
      "count": 4,
      "max": [
        0.5765928030014038,
        -0.605516791343689,
        0.9452919960021973
      ],
      "min": [
        0.3203285038471222,
        -0.8599963188171387,
        0.8147199153900146
      ],
      "type": "VEC3"
    },
    {
      "bufferView": 2,
      "byteOffset": 124656,
      "componentType": 5126,
      "count": 4,
      "max": [
        0.45398926734924316,
        -3.1887827844911953e-07,
        0.8910077214241028
      ],
      "min": [
        0.45398831367492676,
        -9.986650866267155e-07,
        0.891007125377655
      ],
      "type": "VEC3"
    },
    {
      "bufferView": 1,
      "byteOffset": 41536,
      "componentType": 5126,
      "count": 4,
      "max": [
        0.6311799883842468,
        0.6855649948120117
      ],
      "min": [
        0.6208294630050659,
        0.679194986820221
      ],
      "type": "VEC2"
    },
    {
      "bufferView": 0,
      "byteOffset": 39600,
      "componentType": 5125,
      "count": 6,
      "type": "SCALAR"
    },
    {
      "bufferView": 2,
      "byteOffset": 124704,
      "componentType": 5126,
      "count": 79,
      "max": [
        0.9112458825111389,
        0.9958879947662354,
        -0.008966922760009766
      ],
      "min": [
        -0.729823887348175,
        -0.9355580806732178,
        -0.911246657371521
      ],
      "type": "VEC3"
    },
    {
      "bufferView": 2,
      "byteOffset": 125652,
      "componentType": 5126,
      "count": 79,
      "max": [
        0.7055310606956482,
        0.9999984502792358,
        0.9876894354820251
      ],
      "min": [
        -0.9542410969734192,
        -0.9852790832519531,
        -0.3122432231903076
      ],
      "type": "VEC3"
    },
    {
      "bufferView": 1,
      "byteOffset": 41568,
      "componentType": 5126,
      "count": 79,
      "max": [
        0.6299257874488831,
        0.9280382990837097
      ],
      "min": [
        0.3959414064884186,
        0.09509269148111343
      ],
      "type": "VEC2"
    },
    {
      "bufferView": 0,
      "byteOffset": 39624,
      "componentType": 5125,
      "count": 99,
      "type": "SCALAR"
    },
    {
      "bufferView": 2,
      "byteOffset": 126600,
      "componentType": 5126,
      "count": 121,
      "max": [
        0.15575894713401794,
        3.171649694442749,
        2.4131908416748047
      ],
      "min": [
        -0.12203772366046906,
        3.120939016342163,
        2.1353940963745117
      ],
      "type": "VEC3"
    },
    {
      "bufferView": 2,
      "byteOffset": 128052,
      "componentType": 5126,
      "count": 121,
      "max": [
        0.9876888394355774,
        1.0,
        0.9876881241798401
      ],
      "min": [
        -0.9876888394355774,
        0.0,
        -0.9876881241798401
      ],
      "type": "VEC3"
    },
    {
      "bufferView": 1,
      "byteOffset": 42200,
      "componentType": 5126,
      "count": 121,
      "max": [
        1.0287712812423706,
        1.1058897972106934
      ],
      "min": [
        -0.05705523490905762,
        -0.10588979721069336
      ],
      "type": "VEC2"
    },
    {
      "bufferView": 0,
      "byteOffset": 40020,
      "componentType": 5125,
      "count": 300,
      "type": "SCALAR"
    },
    {
      "bufferView": 2,
      "byteOffset": 129504,
      "componentType": 5126,
      "count": 256,
      "max": [
        0.31781235337257385,
        3.172502040863037,
        2.575244665145874
      ],
      "min": [
        -0.2840910255908966,
        3.0706429481506348,
        1.9733408689498901
      ],
      "type": "VEC3"
    },
    {
      "bufferView": 2,
      "byteOffset": 132576,
      "componentType": 5126,
      "count": 256,
      "max": [
        0.529790461063385,
        1.0,
        0.5297929644584656
      ],
      "min": [
        -0.529790461063385,
        -1.0,
        -0.9876887798309326
      ],
      "type": "VEC3"
    },
    {
      "bufferView": 3,
      "byteOffset": 28480,
      "componentType": 5126,
      "count": 256,
      "max": [
        1.0,
        0.531667947769165,
        1.0,
        1.0
      ],
      "min": [
        -0.03467647358775139,
        -1.0,
        -0.9999980330467224,
        1.0
      ],
      "type": "VEC4"
    },
    {
      "bufferView": 1,
      "byteOffset": 43168,
      "componentType": 5126,
      "count": 256,
      "max": [
        0.8391817212104797,
        0.9317963719367981
      ],
      "min": [
        0.014011677354574203,
        0.016198119148612022
      ],
      "type": "VEC2"
    },
    {
      "bufferView": 0,
      "byteOffset": 41220,
      "componentType": 5125,
      "count": 792,
      "type": "SCALAR"
    },
    {
      "bufferView": 2,
      "byteOffset": 135648,
      "componentType": 5126,
      "count": 218,
      "max": [
        0.3375082314014435,
        3.172502040863037,
        2.59529447555542
      ],
      "min": [
        -0.30378687381744385,
        3.0502710342407227,
        1.9712378978729248
      ],
      "type": "VEC3"
    },
    {
      "bufferView": 2,
      "byteOffset": 138264,
      "componentType": 5126,
      "count": 218,
      "max": [
        1.0,
        0.9026935696601868,
        1.0
      ],
      "min": [
        -1.0,
        -0.9693835973739624,
        -0.8872549533843994
      ],
      "type": "VEC3"
    },
    {
      "bufferView": 1,
      "byteOffset": 45216,
      "componentType": 5126,
      "count": 218,
      "max": [
        0.9372200965881348,
        0.8665027022361755
      ],
      "min": [
        0.0018706986447796226,
        0.00199203216470778
      ],
      "type": "VEC2"
    },
    {
      "bufferView": 0,
      "byteOffset": 44388,
      "componentType": 5125,
      "count": 456,
      "type": "SCALAR"
    },
    {
      "bufferView": 2,
      "byteOffset": 140880,
      "componentType": 5126,
      "count": 426,
      "max": [
        0.5542110204696655,
        2.0258522033691406,
        0.7507295608520508
      ],
      "min": [
        -0.553964376449585,
        0.23874813318252563,
        -0.3831612169742584
      ],
      "type": "VEC3"
    },
    {
      "bufferView": 2,
      "byteOffset": 145992,
      "componentType": 5126,
      "count": 426,
      "max": [
        0.996844470500946,
        1.0,
        1.0
      ],
      "min": [
        -0.9968389868736267,
        -1.0,
        -1.0
      ],
      "type": "VEC3"
    },
    {
      "bufferView": 1,
      "byteOffset": 46960,
      "componentType": 5126,
      "count": 426,
      "max": [
        0.875,
        1.0073491334915161
      ],
      "min": [
        0.125,
        -0.14859116077423096
      ],
      "type": "VEC2"
    },
    {
      "bufferView": 0,
      "byteOffset": 46212,
      "componentType": 5125,
      "count": 1416,
      "type": "SCALAR"
    },
    {
      "bufferView": 2,
      "byteOffset": 151104,
      "componentType": 5126,
      "count": 81,
      "max": [
        0.5001505017280579,
        1.8728867769241333,
        0.5228128433227539
      ],
      "min": [
        -0.4998493790626526,
        1.0857787132263184,
        -0.3422730565071106
      ],
      "type": "VEC3"
    },
    {
      "bufferView": 2,
      "byteOffset": 152076,
      "componentType": 5126,
      "count": 81,
      "max": [
        0.9183775186538696,
        0.9882227182388306,
        -0.07174186408519745
      ],
      "min": [
        -0.9182388186454773,
        0.38904261589050293,
        -0.1672542840242386
      ],
      "type": "VEC3"
    },
    {
      "bufferView": 1,
      "byteOffset": 50368,
      "componentType": 5126,
      "count": 81,
      "max": [
        0.7252901792526245,
        1.0073491334915161
      ],
      "min": [
        0.27877914905548096,
        -0.14859116077423096
      ],
      "type": "VEC2"
    },
    {
      "bufferView": 0,
      "byteOffset": 51876,
      "componentType": 5125,
      "count": 384,
      "type": "SCALAR"
    },
    {
      "bufferView": 2,
      "byteOffset": 153048,
      "componentType": 5126,
      "count": 408,
      "max": [
        0.1158667802810669,
        3.4667856693267822,
        0.7970453500747681
      ],
      "min": [
        -0.07984627783298492,
        3.2710726261138916,
        0.24097979068756104
      ],
      "type": "VEC3"
    },
    {
      "bufferView": 2,
      "byteOffset": 157944,
      "componentType": 5126,
      "count": 408,
      "max": [
        0.9876936674118042,
        0.9876922965049744,
        1.0
      ],
      "min": [
        -0.9876899123191833,
        -0.9876877665519714,
        -0.39572250843048096
      ],
      "type": "VEC3"
    },
    {
      "bufferView": 3,
      "byteOffset": 32576,
      "componentType": 5126,
      "count": 408,
      "max": [
        1.0,
        0.9999651312828064,
        0.9704834818840027,
        1.0
      ],
      "min": [
        -0.8064330220222473,
        -0.9901402592658997,
        -0.970486581325531,
        1.0
      ],
      "type": "VEC4"
    },
    {
      "bufferView": 1,
      "byteOffset": 51016,
      "componentType": 5126,
      "count": 408,
      "max": [
        1.5787432193756104,
        1.8651432991027832
      ],
      "min": [
        -1.2760486602783203,
        -1.1791847944259644
      ],
      "type": "VEC2"
    },
    {
      "bufferView": 0,
      "byteOffset": 53412,
      "componentType": 5125,
      "count": 720,
      "type": "SCALAR"
    },
    {
      "bufferView": 2,
      "byteOffset": 162840,
      "componentType": 5126,
      "count": 330,
      "max": [
        0.08357058465480804,
        3.4344894886016846,
        0.772413969039917
      ],
      "min": [
        -0.04755008593201637,
        3.3033688068389893,
        -0.04096043109893799
      ],
      "type": "VEC3"
    },
    {
      "bufferView": 2,
      "byteOffset": 166800,
      "componentType": 5126,
      "count": 330,
      "max": [
        0.9876935482025146,
        0.9876923561096191,
        1.0
      ],
      "min": [
        -0.9876899123191833,
        -0.9876878261566162,
        -1.0
      ],
      "type": "VEC3"
    },
    {
      "bufferView": 1,
      "byteOffset": 54280,
      "componentType": 5126,
      "count": 330,
      "max": [
        2.2218828201293945,
        2.3491251468658447
      ],
      "min": [
        -1.1673388481140137,
        -1.3491251468658447
      ],
      "type": "VEC2"
    },
    {
      "bufferView": 0,
      "byteOffset": 56292,
      "componentType": 5125,
      "count": 600,
      "type": "SCALAR"
    }
  ],
  "asset": {
    "extras": {
      "author": "K_LewisCreates (https://sketchfab.com/TurboTurtle212)",
      "license": "CC-BY-4.0 (http://creativecommons.org/licenses/by/4.0/)",
      "source": "https://sketchfab.com/3d-models/web-shooter-fanmade-3b7dc76f0d8b4c7b900de581d3014904",
      "title": "Web shooter Fanmade"
    },
    "generator": "Sketchfab-12.68.0",
    "version": "2.0"
  },
  "bufferViews": [
    {
      "buffer": 0,
      "byteLength": 58692,
      "name": "floatBufferViews",
      "target": 34963
    },
    {
      "buffer": 0,
      "byteLength": 56920,
      "byteOffset": 58692,
      "byteStride": 8,
      "name": "floatBufferViews",
      "target": 34962
    },
    {
      "buffer": 0,
      "byteLength": 170760,
      "byteOffset": 115612,
      "byteStride": 12,
      "name": "floatBufferViews",
      "target": 34962
    },
    {
      "buffer": 0,
      "byteLength": 39104,
      "byteOffset": 286372,
      "byteStride": 16,
      "name": "floatBufferViews",
      "target": 34962
    }
  ],
  "buffers": [
    {
      "byteLength": 325476,
      "uri": "scene.bin"
    }
  ],
  "extensionsUsed": [
    "KHR_materials_transmission"
  ],
  "images": [
    {
      "uri": "textures/phong13_normal.png"
    },
    {
      "uri": "textures/phong4_baseColor.jpeg"
    },
    {
      "uri": "textures/phong4_normal.png"
    },
    {
      "uri": "textures/phong9_baseColor.jpeg"
    },
    {
      "uri": "textures/phong9_normal.png"
    },
    {
      "uri": "textures/phong11_baseColor.png"
    },
    {
      "uri": "textures/phong11_transmission.png"
    },
    {
      "uri": "textures/phong12_baseColor.jpeg"
    }
  ],
  "materials": [
    {
      "doubleSided": true,
      "name": "phong7",
      "pbrMetallicRoughness": {
        "baseColorFactor": [
          0.14758262294780816,
          0.14758262294780816,
          0.14758262294780816,
          1.0
        ],
        "metallicFactor": 0.0,
        "roughnessFactor": 0.06194328414473238
      }
    },
    {
      "doubleSided": true,
      "name": "phong13",
      "normalTexture": {
        "index": 0
      },
      "pbrMetallicRoughness": {
        "baseColorFactor": [
          0.23494,
          0.0734277,
          0.0,
          1.0
        ],
        "metallicFactor": 0.0
      }
    },
    {
      "doubleSided": true,
      "name": "phong4",
      "normalTexture": {
        "index": 2
      },
      "pbrMetallicRoughness": {
        "baseColorTexture": {
          "index": 1
        },
        "metallicFactor": 0.0
      }
    },
    {
      "doubleSided": true,
      "name": "phong2",
      "pbrMetallicRoughness": {
        "baseColorFactor": [
          0.0,
          0.0,
          0.0,
          1.0
        ],
        "metallicFactor": 0.0,
        "roughnessFactor": 0.8942628736559436
      }
    },
    {
      "doubleSided": true,
      "name": "phong5",
      "pbrMetallicRoughness": {
        "baseColorFactor": [
          0.216867,
          0.216867,
          0.216867,
          1.0
        ],
        "roughnessFactor": 0.10450449628805425
      }
    },
    {
      "doubleSided": true,
      "name": "phong9",
      "normalTexture": {
        "index": 4
      },
      "pbrMetallicRoughness": {
        "baseColorTexture": {
          "index": 3
        },
        "metallicFactor": 0.0,
        "roughnessFactor": 0.8942628736559436
      }
    },
    {
      "doubleSided": true,
      "name": "lambert1",
      "pbrMetallicRoughness": {
        "baseColorFactor": [
          0.5,
          0.5,
          0.5,
          1.0
        ],
        "metallicFactor": 0.0,
        "roughnessFactor": 0.6
      }
    },
    {
      "alphaMode": "BLEND",
      "doubleSided": true,
      "extensions": {
        "KHR_materials_transmission": {
          "transmissionFactor": 1.0,
          "transmissionTexture": {
            "index": 6
          }
        }
      },
      "name": "phong11",
      "pbrMetallicRoughness": {
        "baseColorFactor": [
          1.0,
          0.0,
          0.0,
          1.0
        ],
        "baseColorTexture": {
          "index": 5
        },
        "metallicFactor": 0.0,
        "roughnessFactor": 0.3902726349646438
      }
    },
    {
      "doubleSided": true,
      "name": "strap",
      "pbrMetallicRoughness": {
        "baseColorFactor": [
          0.5,
          0.5,
          0.5,
          1.0
        ],
        "metallicFactor": 0.0,
        "roughnessFactor": 0.8942628736559436
      }
    },
    {
      "doubleSided": true,
      "name": "phong12",
      "pbrMetallicRoughness": {
        "baseColorTexture": {
          "index": 7
        },
        "roughnessFactor": 0.8942628736559436
      }
    }
  ],
  "meshes": [
    {
      "name": "pCylinder1_phong7_0",
      "primitives": [
        {
          "attributes": {
            "NORMAL": 1,
            "POSITION": 0,
            "TEXCOORD_0": 2
          },
          "indices": 3,
          "material": 0,
          "mode": 4
        }
      ]
    },
    {
      "name": "pCylinder1_phong13_0",
      "primitives": [
        {
          "attributes": {
            "NORMAL": 5,
            "POSITION": 4,
            "TANGENT": 6,
            "TEXCOORD_0": 7
          },
          "indices": 8,
          "material": 1,
          "mode": 4
        }
      ]
    },
    {
      "name": "pCylinder1_phong4_0",
      "primitives": [
        {
          "attributes": {
            "NORMAL": 10,
            "POSITION": 9,
            "TANGENT": 11,
            "TEXCOORD_0": 12
          },
          "indices": 13,
          "material": 2,
          "mode": 4
        }
      ]
    },
    {
      "name": "pCylinder1_phong2_0",
      "primitives": [
        {
          "attributes": {
            "NORMAL": 15,
            "POSITION": 14,
            "TEXCOORD_0": 16
          },
          "indices": 17,
          "material": 3,
          "mode": 4
        }
      ]
    },
    {
      "name": "pCylinder1_phong5_0",
      "primitives": [
        {
          "attributes": {
            "NORMAL": 19,
            "POSITION": 18,
            "TEXCOORD_0": 20
          },
          "indices": 21,
          "material": 4,
          "mode": 4
        }
      ]
    },
    {
      "name": "pCylinder1_phong9_0",
      "primitives": [
        {
          "attributes": {
            "NORMAL": 23,
            "POSITION": 22,
            "TANGENT": 24,
            "TEXCOORD_0": 25
          },
          "indices": 26,
          "material": 5,
          "mode": 4
        }
      ]
    },
    {
      "name": "pCylinder1_lambert1_0",
      "primitives": [
        {
          "attributes": {
            "NORMAL": 28,
            "POSITION": 27,
            "TEXCOORD_0": 29
          },
          "indices": 30,
          "material": 6,
          "mode": 4
        }
      ]
    },
    {
      "name": "pCylinder1_phong11_0",
      "primitives": [
        {
          "attributes": {
            "NORMAL": 32,
            "POSITION": 31,
            "TEXCOORD_0": 33
          },
          "indices": 34,
          "material": 7,
          "mode": 4
        }
      ]
    },
    {
      "name": "pCylinder1_strap_0",
      "primitives": [
        {
          "attributes": {
            "NORMAL": 36,
            "POSITION": 35,
            "TEXCOORD_0": 37
          },
          "indices": 38,
          "material": 8,
          "mode": 4
        }
      ]
    },
    {
      "name": "pCylinder2_phong12_0",
      "primitives": [
        {
          "attributes": {
            "NORMAL": 40,
            "POSITION": 39,
            "TEXCOORD_0": 41
          },
          "indices": 42,
          "material": 9,
          "mode": 4
        }
      ]
    },
    {
      "name": "pCylinder2_phong4_0",
      "primitives": [
        {
          "attributes": {
            "NORMAL": 44,
            "POSITION": 43,
            "TANGENT": 45,
            "TEXCOORD_0": 46
          },
          "indices": 47,
          "material": 2,
          "mode": 4
        }
      ]
    },
    {
      "name": "pCylinder2_phong7_0",
      "primitives": [
        {
          "attributes": {
            "NORMAL": 49,
            "POSITION": 48,
            "TEXCOORD_0": 50
          },
          "indices": 51,
          "material": 0,
          "mode": 4
        }
      ]
    },
    {
      "name": "pCube1_phong5_0",
      "primitives": [
        {
          "attributes": {
            "NORMAL": 53,
            "POSITION": 52,
            "TEXCOORD_0": 54
          },
          "indices": 55,
          "material": 4,
          "mode": 4
        }
      ]
    },
    {
      "name": "pCube1_phong11_0",
      "primitives": [
        {
          "attributes": {
            "NORMAL": 57,
            "POSITION": 56,
            "TEXCOORD_0": 58
          },
          "indices": 59,
          "material": 7,
          "mode": 4
        }
      ]
    },
    {
      "name": "pCylinder3_phong4_0",
      "primitives": [
        {
          "attributes": {
            "NORMAL": 61,
            "POSITION": 60,
            "TANGENT": 62,
            "TEXCOORD_0": 63
          },
          "indices": 64,
          "material": 2,
          "mode": 4
        }
      ]
    },
    {
      "name": "pCylinder3_phong12_0",
      "primitives": [
        {
          "attributes": {
            "NORMAL": 66,
            "POSITION": 65,
            "TEXCOORD_0": 67
          },
          "indices": 68,
          "material": 9,
          "mode": 4
        }
      ]
    }
  ],
  "nodes": [
    {
      "children": [
        1
      ],
      "matrix": [
        0.686050295829773,
        -0.5670074820518495,
        0.45589202642440785,
        0.0,
        0.6770956516265869,
        0.2682927250862123,
        -0.685244858264923,
        0.0,
        0.2662264406681061,
        0.7787949442863463,
        0.5679805874824526,
        0.0,
        -0.004203419666737318,
        0.006313698366284373,
        -0.012819666415452955,
        1.0
      ],
      "name": "Sketchfab_model"
    },
    {
      "children": [
        2
      ],
      "matrix": [
        0.009999999776482582,
        0.0,
        0.0,
        0.0,
        0.0,
        0.0,
        0.009999999776482582,
        0.0,
        0.0,
        -0.009999999776482582,
        0.0,
        0.0,
        0.0,
        0.0,
        0.0,
        1.0
      ],
      "name": "0ad304ee1c054c6f9c9b5cdf3eaf698c.fbx"
    },
    {
      "children": [
        3,
        13,
        17,
        20
      ],
      "name": "RootNode"
    },
    {
      "children": [
        4,
        5,
        6,
        7,
        8,
        9,
        10,
        11,
        12
      ],
      "matrix": [
        -0.9998818098498705,
        0.0153742099422134,
        8.673617379884035e-19,
        0.0,
        -1.342328664770593e-18,
        -7.930064727260119e-17,
        0.11904612183570862,
        0.0,
        0.0153742099422134,
        0.9998818098498705,
        7.771561172376096e-16,
        0.0,
        0.0,
        2.3920297622680664,
        0.0,
        1.0
      ],
      "name": "pCylinder1"
    },
    {
      "mesh": 0,
      "name": "pCylinder1_phong7_0"
    },
    {
      "mesh": 1,
      "name": "pCylinder1_phong13_0"
    },
    {
      "mesh": 2,
      "name": "pCylinder1_phong4_0"
    },
    {
      "mesh": 3,
      "name": "pCylinder1_phong2_0"
    },
    {
      "mesh": 4,
      "name": "pCylinder1_phong5_0"
    },
    {
      "mesh": 5,
      "name": "pCylinder1_phong9_0"
    },
    {
      "mesh": 6,
      "name": "pCylinder1_lambert1_0"
    },
    {
      "mesh": 7,
      "name": "pCylinder1_phong11_0"
    },
    {
      "mesh": 8,
      "name": "pCylinder1_strap_0"
    },
    {
      "children": [
        14,
        15,
        16
      ],
      "name": "pCylinder2"
    },
    {
      "mesh": 9,
      "name": "pCylinder2_phong12_0"
    },
    {
      "mesh": 10,
      "name": "pCylinder2_phong4_0"
    },
    {
      "mesh": 11,
      "name": "pCylinder2_phong7_0"
    },
    {
      "children": [
        18,
        19
      ],
      "matrix": [
        0.9997862494585068,
        0.00178708231494957,
        0.020597614679666323,
        0.0,
        0.00010256381670022741,
        0.11212178329375697,
        -0.014706205275933361,
        0.0,
        -0.02065509070795883,
        0.13003972530161864,
        0.9912936179918267,
        0.0,
        0.024089526385068893,
        3.187100648880005,
        -0.6108270287513733,
        1.0
      ],
      "name": "pCube1"
    },
    {
      "mesh": 12,
      "name": "pCube1_phong5_0"
    },
    {
      "mesh": 13,
      "name": "pCube1_phong11_0"
    },
    {
      "children": [
        21,
        22
      ],
      "name": "pCylinder3"
    },
    {
      "mesh": 14,
      "name": "pCylinder3_phong4_0"
    },
    {
      "mesh": 15,
      "name": "pCylinder3_phong12_0"
    }
  ],
  "samplers": [
    {
      "magFilter": 9729,
      "minFilter": 9987,
      "wrapS": 10497,
      "wrapT": 10497
    }
  ],
  "scene": 0,
  "scenes": [
    {
      "name": "Sketchfab_Scene",
      "nodes": [
        0
      ]
    }
  ],
  "textures": [
    {
      "sampler": 0,
      "source": 0
    },
    {
      "sampler": 0,
      "source": 1
    },
    {
      "sampler": 0,
      "source": 2
    },
    {
      "sampler": 0,
      "source": 3
    },
    {
      "sampler": 0,
      "source": 4
    },
    {
      "sampler": 0,
      "source": 5
    },
    {
      "sampler": 0,
      "source": 6
    },
    {
      "sampler": 0,
      "source": 7
    }
  ]
}
