{
  "accessors": [
    {
      "bufferView": 2,
      "componentType": 5126,
      "count": 11536,
      "max": [
        140.5489959716797,
        130.84500122070313,
        27.438499450683594
      ],
      "min": [
        -52.16659927368164,
        -130.84500122070313,
        -0.32341599464416504
      ],
      "type": "VEC3"
    },
    {
      "bufferView": 2,
      "byteOffset": 138432,
      "componentType": 5126,
      "count": 11536,
      "max": [
        1.0,
        1.0,
        1.0
      ],
      "min": [
        -1.0,
        -1.0,
        -1.0
      ],
      "type": "VEC3"
    },
    {
      "bufferView": 1,
      "componentType": 5126,
      "count": 11536,
      "max": [
        0.9969300031661987,
        0.9952499866485596
      ],
      "min": [
        0.004449999891221523,
        0.0037900209426879883
      ],
      "type": "VEC2"
    },
    {
      "bufferView": 0,
      "componentType": 5125,
      "count": 36897,
      "type": "SCALAR"
    },
    {
      "bufferView": 2,
      "byteOffset": 276864,
      "componentType": 5126,
      "count": 19433,
      "max": [
        159.57400512695313,
        124.38500213623047,
        27.89590072631836
      ],
      "min": [
        -159.57400512695313,
        -124.38500213623047,
        -36.70280075073242
      ],
      "type": "VEC3"
    },
    {
      "bufferView": 2,
      "byteOffset": 510060,
      "componentType": 5126,
      "count": 19433,
      "max": [
        1.0,
        1.0,
        1.0
      ],
      "min": [
        -1.0,
        -1.0,
        -1.0
      ],
      "type": "VEC3"
    },
    {
      "bufferView": 1,
      "byteOffset": 92288,
      "componentType": 5126,
      "count": 19433,
      "max": [
        0.9986100196838379,
        0.9946600198745728
      ],
      "min": [
        0.0005000000237487257,
        0.0062999725341796875
      ],
      "type": "VEC2"
    },
    {
      "bufferView": 0,
      "byteOffset": 147588,
      "componentType": 5125,
      "count": 60000,
      "type": "SCALAR"
    },
    {
      "bufferView": 2,
      "byteOffset": 743256,
      "componentType": 5126,
      "count": 93,
      "max": [
        7.520830154418945,
        25.589000701904297,
        27.784400939941406
      ],
      "min": [
        -2.1443700790405273,
        -25.280399322509766,
        17.01799964904785
      ],
      "type": "VEC3"
    },
    {
      "bufferView": 2,
      "byteOffset": 744372,
      "componentType": 5126,
      "count": 93,
      "max": [
        0.9702724814414978,
        0.9737297296524048,
        0.9854218363761902
      ],
      "min": [
        -0.970859706401825,
        -0.9737297296524048,
        -1.0
      ],
      "type": "VEC3"
    },
    {
      "bufferView": 1,
      "byteOffset": 247752,
      "componentType": 5126,
      "count": 93,
      "max": [
        60.67290115356445,
        62.53559875488281
      ],
      "min": [
        -0.6728960275650024,
        51.46440124511719
      ],
      "type": "VEC2"
    },
    {
      "bufferView": 0,
      "byteOffset": 387588,
      "componentType": 5125,
      "count": 144,
      "type": "SCALAR"
    },
    {
      "bufferView": 2,
      "byteOffset": 745488,
      "componentType": 5126,
      "count": 12788,
      "max": [
        129.00999450683594,
        26.032100677490234,
        34.92380142211914
      ],
      "min": [
        -6.41126012802124,
        -26.170400619506836,
        16.06410026550293
      ],
      "type": "VEC3"
    },
    {
      "bufferView": 2,
      "byteOffset": 898944,
      "componentType": 5126,
      "count": 12788,
      "max": [
        1.0,
        1.0,
        1.0
      ],
      "min": [
        -1.0,
        -1.0,
        -1.0
      ],
      "type": "VEC3"
    },
    {
      "bufferView": 1,
      "byteOffset": 248496,
      "componentType": 5126,
      "count": 12788,
      "max": [
        0.5693299770355225,
        0.42865002155303955
      ],
      "min": [
        0.003100000089034438,
        0.002290010452270508
      ],
      "type": "VEC2"
    },
    {
      "bufferView": 0,
      "byteOffset": 388164,
      "componentType": 5125,
      "count": 34296,
      "type": "SCALAR"
    },
    {
      "bufferView": 2,
      "byteOffset": 1052400,
      "componentType": 5126,
      "count": 48,
      "max": [
        7.772329807281494,
        3.9366700649261475,
        28.566600799560547
      ],
      "min": [
        -7.460319995880127,
        -3.969180107116699,
        25.66819953918457
      ],
      "type": "VEC3"
    },
    {
      "bufferView": 2,
      "byteOffset": 1052976,
      "componentType": 5126,
      "count": 48,
      "max": [
        1.0,
        1.0,
        1.0
      ],
      "min": [
        -1.0,
        -1.0,
        -1.0
      ],
      "type": "VEC3"
    },
    {
      "bufferView": 1,
      "byteOffset": 350800,
      "componentType": 5126,
      "count": 48,
      "max": [
        8.904080390930176,
        7.36230993270874
      ],
      "min": [
        1.0,
        3.25
      ],
      "type": "VEC2"
    },
    {
      "bufferView": 0,
      "byteOffset": 525348,
      "componentType": 5125,
      "count": 72,
      "type": "SCALAR"
    },
    {
      "bufferView": 2,
      "byteOffset": 1053552,
      "componentType": 5126,
      "count": 48,
      "max": [
        140.43600463867188,
        2.851560115814209,
        25.739999771118164
      ],
      "min": [
        125.5469970703125,
        -2.8614299297332764,
        20.853200912475586
      ],
      "type": "VEC3"
    },
    {
      "bufferView": 2,
      "byteOffset": 1054128,
      "componentType": 5126,
      "count": 48,
      "max": [
        0.9920563697814941,
        1.0,
        0.9920297861099243
      ],
      "min": [
        -0.9920563697814941,
        -1.0,
        -0.9920297861099243
      ],
      "type": "VEC3"
    },
    {
      "bufferView": 1,
      "byteOffset": 351184,
      "componentType": 5126,
      "count": 48,
      "max": [
        4.077239990234375,
        7.383580207824707
      ],
      "min": [
        0.75,
        4.25
      ],
      "type": "VEC2"
    },
    {
      "bufferView": 0,
      "byteOffset": 525636,
      "componentType": 5125,
      "count": 72,
      "type": "SCALAR"
    }
  ],
  "asset": {
    "extras": {
      "author": "Dave Love SketchFab (https://sketchfab.com/Tyler_Dave)",
      "license": "CC-BY-4.0 (http://creativecommons.org/licenses/by/4.0/)",
      "source": "https://sketchfab.com/3d-models/lufthansa-airbus-a340-600-499ae6227c734f59a54c101a537ca6c7",
      "title": "Lufthansa Airbus A340-600"
    },
    "generator": "Sketchfab-17.18.0",
    "version": "2.0"
  },
  "bufferViews": [
    {
      "buffer": 0,
      "byteLength": 525924,
      "name": "floatBufferViews",
      "target": 34963
    },
    {
      "buffer": 0,
      "byteLength": 351568,
      "byteOffset": 525924,
      "byteStride": 8,
      "name": "floatBufferViews",
      "target": 34962
    },
    {
      "buffer": 0,
      "byteLength": 1054704,
      "byteOffset": 877492,
      "byteStride": 12,
      "name": "floatBufferViews",
      "target": 34962
    }
  ],
  "buffers": [
    {
      "byteLength": 1932196,
      "uri": "scene.bin"
    }
  ],
  "extensionsUsed": [
    "KHR_materials_specular"
  ],
  "images": [
    {
      "uri": "textures/Part1Mtl_baseColor.png"
    },
    {
      "uri": "textures/Part5Mtl_baseColor.png"
    },
    {
      "uri": "textures/Part7Mtl_baseColor.png"
    }
  ],
  "materials": [
    {
      "doubleSided": true,
      "extensions": {
        "KHR_materials_specular": {
          "specularColorFactor": [
            1.0,
            1.0,
            1.0
          ],
          "specularFactor": 1.0
        }
      },
      "name": "Part1Mtl",
      "pbrMetallicRoughness": {
        "baseColorTexture": {
          "index": 0
        },
        "metallicFactor": 0.546590432489423,
        "roughnessFactor": 0.20402239087754725
      }
    },
    {
      "doubleSided": true,
      "extensions": {
        "KHR_materials_specular": {
          "specularColorFactor": [
            1.0,
            1.0,
            1.0
          ],
          "specularFactor": 1.0
        }
      },
      "name": "Part5Mtl",
      "pbrMetallicRoughness": {
        "baseColorTexture": {
          "index": 1
        },
        "metallicFactor": 0.10864221986556569,
        "roughnessFactor": 0.09999999999999998
      }
    },
    {
      "doubleSided": true,
      "extensions": {
        "KHR_materials_specular": {
          "specularColorFactor": [
            1.0,
            1.0,
            1.0
          ],
          "specularFactor": 0.0373524
        }
      },
      "name": "Part6Mtl",
      "pbrMetallicRoughness": {
        "baseColorFactor": [
          0.297653,
          0.297653,
          0.297653,
          1.0
        ],
        "metallicFactor": 0.0
      }
    },
    {
      "alphaMode": "BLEND",
      "doubleSided": true,
      "extensions": {
        "KHR_materials_specular": {
          "specularColorFactor": [
            1.0,
            1.0,
            1.0
          ],
          "specularFactor": 0.0
        }
      },
      "name": "Part7Mtl",
      "pbrMetallicRoughness": {
        "baseColorTexture": {
          "index": 2
        },
        "metallicFactor": 0.0
      }
    },
    {
      "doubleSided": true,
      "extensions": {
        "KHR_materials_specular": {
          "specularColorFactor": [
            1.0,
            1.0,
            1.0
          ],
          "specularFactor": 1.0
        }
      },
      "name": "Part8Mtl",
      "pbrMetallicRoughness": {
        "baseColorFactor": [
          0.113921,
          0.124741,
          0.111299,
          1.0
        ]
      }
    },
    {
      "doubleSided": true,
      "extensions": {
        "KHR_materials_specular": {
          "specularColorFactor": [
            1.0,
            1.0,
            1.0
          ],
          "specularFactor": 0.0151998
        }
      },
      "name": "Part14Mtl",
      "pbrMetallicRoughness": {
        "baseColorFactor": [
          0.116576,
          0.12753,
          0.119264,
          1.0
        ],
        "metallicFactor": 0.0
      }
    }
  ],
  "meshes": [
    {
      "name": "Object_0",
      "primitives": [
        {
          "attributes": {
            "NORMAL": 1,
            "POSITION": 0,
            "TEXCOORD_0": 2
          },
          "indices": 3,
          "material": 0,
          "mode": 4
        }
      ]
    },
    {
      "name": "Object_1",
      "primitives": [
        {
          "attributes": {
            "NORMAL": 5,
            "POSITION": 4,
            "TEXCOORD_0": 6
          },
          "indices": 7,
          "material": 1,
          "mode": 4
        }
      ]
    },
    {
      "name": "Object_2",
      "primitives": [
        {
          "attributes": {
            "NORMAL": 9,
            "POSITION": 8,
            "TEXCOORD_0": 10
          },
          "indices": 11,
          "material": 2,
          "mode": 4
        }
      ]
    },
    {
      "name": "Object_3",
      "primitives": [
        {
          "attributes": {
            "NORMAL": 13,
            "POSITION": 12,
            "TEXCOORD_0": 14
          },
          "indices": 15,
          "material": 3,
          "mode": 4
        }
      ]
    },
    {
      "name": "Object_4",
      "primitives": [
        {
          "attributes": {
            "NORMAL": 17,
            "POSITION": 16,
            "TEXCOORD_0": 18
          },
          "indices": 19,
          "material": 4,
          "mode": 4
        }
      ]
    },
    {
      "name": "Object_5",
      "primitives": [
        {
          "attributes": {
            "NORMAL": 21,
            "POSITION": 20,
            "TEXCOORD_0": 22
          },
          "indices": 23,
          "material": 5,
          "mode": 4
        }
      ]
    }
  ],
  "nodes": [
    {
      "children": [
        1
      ],
      "matrix": [
        1.0,
        0.0,
        0.0,
        0.0,
        0.0,
        2.220446049250313e-16,
        -1.0,
        0.0,
        0.0,
        1.0,
        2.220446049250313e-16,
        0.0,
        0.0,
        0.0,
        0.0,
        1.0
      ],
      "name": "Sketchfab_model"
    },
    {
      "children": [
        2
      ],
      "name": "root"
    },
    {
      "children": [
        3
      ],
      "matrix": [
        1.0,
        0.0,
        0.0,
        0.0,
        0.0,
        2.220446049250313e-16,
        1.0,
        0.0,
        0.0,
        -1.0,
        2.220446049250313e-16,
        0.0,
        0.0,
        0.0,
        0.0,
        1.0
      ],
      "name": "GLTF_SceneRootNode"
    },
    {
      "children": [
        4,
        5,
        6,
        7,
        8,
        9
      ],
      "matrix": [
        1.0,
        0.0,
        0.0,
        0.0,
        0.0,
        0.0,
        1.0,
        0.0,
        0.0,
        -1.0,
        0.0,
        0.0,
        0.0,
        0.0,
        0.0,
        1.0
      ],
      "name": "A340_0"
    },
    {
      "mesh": 0,
      "name": "Object_4"
    },
    {
      "mesh": 1,
      "name": "Object_5"
    },
    {
      "mesh": 2,
      "name": "Object_6"
    },
    {
      "mesh": 3,
      "name": "Object_7"
    },
    {
      "mesh": 4,
      "name": "Object_8"
    },
    {
      "mesh": 5,
      "name": "Object_9"
    }
  ],
  "samplers": [
    {
      "magFilter": 9729,
      "minFilter": 9987,
      "wrapS": 10497,
      "wrapT": 10497
    }
  ],
  "scene": 0,
  "scenes": [
    {
      "name": "Sketchfab_Scene",
      "nodes": [
        0
      ]
    }
  ],
  "textures": [
    {
      "sampler": 0,
      "source": 0
    },
    {
      "sampler": 0,
      "source": 1
    },
    {
      "sampler": 0,
      "source": 2
    }
  ]
}
